/* XPM */
static char *Untitled1671459283[] = {
/* columns rows colors chars-per-pixel */
"100 100 7 1 ",
"  c #99E5EA",
". c #A4E9EC",
"X c #AEECEE",
"o c #B7EFF0",
"O c #C9F3F3",
"+ c #D2F3F4",
"@ c #D8F4F5",
/* pixels */
"@@@@@@@@@@@@@@@+OOOoooXXX                                               XXXoooOOO+@@@@@@@@@@@@@@@@@@",
"@@@@@@@@@@@@@@@+OOOoooXXX                                               XXXoooOOO+@@@@@@@@@@@@@@@@@@",
"@@@@@@@@@@@@@@@+OOOoooXXX                                               XXXoooOOO+@@@@@@@@@@@@@@@@@@",
"@@@@@@@@@@@@+OOOoooXXX                                               XXXoooOOO+@@@@@@@@@@@@@@@@@@@@@",
"@@@@@@@@@@@@+OOOoooXXX                                               XXXoooOOO@@@@@@@@@@@@@@@@@@@@@@",
"@@@@@@@@@@@@+OOOoooXXX                                               XXXoooOOO@@@@@@@@@@@@@@@@@@@@@@",
"@@@@@@@@@+++OoooXXX                                               X.XoooOOO+++@@@@@@@@@@@@@@@@@@@@@@",
"@@@@@@@@@+OOOoooXX.                                              .XXXoooOOO@@@@@@@@@@@@@@@@@@@@@@@@@",
"@@@@@@@@@+OOOoooXX.                                               XXXoooOOO@@@@@@@@@@@@@@@@@@@@@@@@@",
"@@@@@@+++OoooXXX..                                             ..XoooOOO+++@@@@@@@@@@@@@@@@@@@@@@@@@",
"@@@@@@+OOoooXXX.                                              .XXXoooOOO@@@@@@@@@@@@@@@@@@@@@@@@@@@@",
"@@@@@@+OOoooXXX.                                              .XXXoooOOO@@@@@@@@@@@@@@@@@@@@@@@@@@@@",
"@@@+++OOOoXXX..                                             ..XXXoOOO+++@@@@@@@@@@@@@@@@@@@@@@@@@@@@",
"@@@OOOoooXXX.                                              .XXXoooOO+@@@@@@@@@@@@@@@@@@@@@@@@@@@@@@@",
"@@@OOOoooXXX.                                              .XXXoooOO+@@@@@@@@@@@@@@@@@@@@@@@@@@@@@@@",
"+++OOOoooX..                                             ..XXXoooO+++@@@@@@@@@@@@@@@@@@@@@@@@@@@@@@@",
"OOOoooXXX.                                              .XXoooOOO+@@@@@@@@@@@@@@@@@@@@@@@@@@@@@@@@@@",
"OOOoooXXX.                                              .XXoooOOO+@@@@@@@@@@@@@@@@@@@@@@@@@@@@@@@@@@",
"OOOoooX..                                              .XXXoooO+++@@@@@@@@@@@@@@@@@@@@@@@@@@@@@@@+++",
"oooXXX                                               XXXoooOOO+@@@@@@@@@@@@@@@@@@@@@@@@@@@@@@@@@@OOO",
"oooXXX                                               XXXoooOOO+@@@@@@@@@@@@@@@@@@@@@@@@@@@@@@@@@@OOO",
"oooXXX                                               XXXoooOOO+@@@@@@@@@@@@@@@@@@@@@@@@@@@@@@@@@+OOO",
"XXX                                               XXXoooOOO+@@@@@@@@@@@@@@@@@@@@@@@@@@@@@@@@@+OOOooo",
"XXX                                               XXXoooOOO+@@@@@@@@@@@@@@@@@@@@@@@@@@@@@@@@@+OOOooo",
"XXX                                               XXXoooOOO+@@@@@@@@@@@@@@@@@@@@@@@@@@@@@@@@@+OOOooo",
"                                               XXXoooOOO+@@@@@@@@@@@@@@@@@@@@@@@@@@@@@@@@@+OOOoooXXX",
"                                               XXXoooOOO+@@@@@@@@@@@@@@@@@@@@@@@@@@@@@@@@@+OOOoooXXX",
"                                               XXXoooOOO+@@@@@@@@@@@@@@@@@@@@@@@@@@@@@@@@@+OOOoooXXX",
"                                            XXXoooOOO+@@@@@@@@@@@@@@@@@@@@@@@@@@@@@@@@@+OOOoooXXX   ",
"                                            XXXoooOOO@@@@@@@@@@@@@@@@@@@@@@@@@@@@@@@@@@+OOOoooXXX   ",
"                                            XXXoooOOO@@@@@@@@@@@@@@@@@@@@@@@@@@@@@@@@@@+OOOoooXXX   ",
"                                        ...XoooOOO+++@@@@@@@@@@@@@@@@@@@@@@@@@@@@@@@+++OoooXXX      ",
"                                        .XXXoooOOO@@@@@@@@@@@@@@@@@@@@@@@@@@@@@@@@@@+OOOoooXX.      ",
"                                         XXXoooOOO@@@@@@@@@@@@@@@@@@@@@@@@@@@@@@@@@@+OOooooXX.      ",
"                                      ..XoooOOO+++@@@@@@@@@@@@@@@@@@@@@@@@@@@@@@@+++OoooXXX..       ",
"                                     .XXXoooOOO@@@@@@@@@@@@@@@@@@@@@@@@@@@@@@@@@@+OOoooXXX.         ",
"                                     .XXXoooOOO@@@@@@@@@@@@@@@@@@@@@@@@@@@@@@@@@@+OOoooXXX.         ",
"                                   ..XXXoOOO+++@@@@@@@@@@@@@@@@@@@@@@@@@@@@@@@+++OoOoXXX..          ",
"                                  .XXXoooOO+@@@@@@@@@@@@@@@@@@@@@@@@@@@@@@@@@@OOOoooXXX.            ",
"                                  .XXXoooOO+@@@@@@@@@@@@@@@@@@@@@@@@@@@@@@@@@@+OOoooXXX.            ",
"                                ..XXXoooO+++@@@@@@@@@@@@@@@@@@@@@@@@@@@@@@@+++OOOoooX..             ",
"                               .XXoooOOO+@@@@@@@@@@@@@@@@@@@@@@@@@@@@@@@@@@OOOoooXXX.               ",
"                               .XXooooOO+@@@@@@@@@@@@@@@@@@@@@@@@@@@@@@@@@@OOOoooXXX.               ",
"                             . XXXoooO+++@@@@@@@@@@@@@@@@@@@@@@@@@@@@@@@+++OOOoooX..                ",
"                            XXXoooOOO+@@@@@@@@@@@@@@@@@@@@@@@@@@@@@@@@@@OOOoooXXX                   ",
"                            XXXoooOOO+@@@@@@@@@@@@@@@@@@@@@@@@@@@@@@@@@@OOOoooXXX                   ",
"                            XXXoooOOO+@@@@@@@@@@@@@@@@@@@@@@@@@@@@@@@@@+OOOoooXXX                   ",
"                         XXXoooOOO+@@@@@@@@@@@@@@@@@@@@@@@@@@@@@@@@@+OOOoooXXX                      ",
"                         XXXoooOOO+@@@@@@@@@@@@@@@@@@@@@@@@@@@@@@@@@+OOOoooXXX                      ",
"                         XXXoooOOO+@@@@@@@@@@@@@@@@@@@@@@@@@@@@@@@@@+OOOoooXXX                      ",
"                      XXXoooOOO+@@@@@@@@@@@@@@@@@@@@@@@@@@@@@@@@@+OOOoooXXX                         ",
"                      XXXoooOOO+@@@@@@@@@@@@@@@@@@@@@@@@@@@@@@@@@+OOOoooXXX                         ",
"                      XXXoooOOO+@@@@@@@@@@@@@@@@@@@@@@@@@@@@@@@@@+OOOoooXXX                         ",
"                   XXXoooOOO+@@@@@@@@@@@@@@@@@@@@@@@@@@@@@@@@@+OOOoooXXX                            ",
"                   XXXoooOOO@@@@@@@@@@@@@@@@@@@@@@@@@@@@@@@@@@+OOOoooXXX                            ",
"                   XXXoooOOO@@@@@@@@@@@@@@@@@@@@@@@@@@@@@@@@@@+OOOoooXXX                            ",
"                X.XoooOOO+++@@@@@@@@@@@@@@@@@@@@@@@@@@@@@@@+++OoooXXX                               ",
"               .XXXoooOOO@@@@@@@@@@@@@@@@@@@@@@@@@@@@@@@@@@+OOOoooXX.                               ",
"                XXXoooOOO@@@@@@@@@@@@@@@@@@@@@@@@@@@@@@@@@@+OOOoooXX.                               ",
"             ..XoooOOO+++@@@@@@@@@@@@@@@@@@@@@@@@@@@@@@@+++OoooXXX..                                ",
"            .XXXoooOOO@@@@@@@@@@@@@@@@@@@@@@@@@@@@@@@@@@+OOoooXXX.                                  ",
"            .XXXoooOOO@@@@@@@@@@@@@@@@@@@@@@@@@@@@@@@@@@+OOoooXXX.                                  ",
"          ..XXXoOOO+++@@@@@@@@@@@@@@@@@@@@@@@@@@@@@@@+++OOOoXXX..                                   ",
"         .XXXoooOO+@@@@@@@@@@@@@@@@@@@@@@@@@@@@@@@@@@OOOoooXXX.                                     ",
"         .XXXoooOO+@@@@@@@@@@@@@@@@@@@@@@@@@@@@@@@@@@OOOoooXXX.                                     ",
"       ..XXXoooO+++@@@@@@@@@@@@@@@@@@@@@@@@@@@@@@@+++OOOoooX..                                      ",
"      .XXoooOOO+@@@@@@@@@@@@@@@@@@@@@@@@@@@@@@@@@@OOOoooXXX.                                        ",
"      .XXoooOOO+@@@@@@@@@@@@@@@@@@@@@@@@@@@@@@@@@@OOOoooXXX.                                        ",
"     .XXXoooO+++@@@@@@@@@@@@@@@@@@@@@@@@@@@@@@@+++OOOoooX..                                         ",
"   XXXoooOOO+@@@@@@@@@@@@@@@@@@@@@@@@@@@@@@@@@@OOOoooXXX                                            ",
"   XXXoooOOO+@@@@@@@@@@@@@@@@@@@@@@@@@@@@@@@@@@OOOoooXXX                                            ",
"   XXXoooOOO+@@@@@@@@@@@@@@@@@@@@@@@@@@@@@@@@@+OOOoooXXX                                            ",
"XXXoooOOO+@@@@@@@@@@@@@@@@@@@@@@@@@@@@@@@@@+OOOoooXXX                                            XXX",
"XXXoooOOO+@@@@@@@@@@@@@@@@@@@@@@@@@@@@@@@@@+OOOoooXXX                                            XXX",
"XXXoooOOO+@@@@@@@@@@@@@@@@@@@@@@@@@@@@@@@@@+OOOoooXXX                                            XXX",
"oooOOO+@@@@@@@@@@@@@@@@@@@@@@@@@@@@@@@@@+OOOoooXXX                                            XXXooo",
"oooOOO+@@@@@@@@@@@@@@@@@@@@@@@@@@@@@@@@@+OOOoooXXX                                            XXXooo",
"oooOOO+@@@@@@@@@@@@@@@@@@@@@@@@@@@@@@@@@+OOOoooXXX                                           .XXXooo",
"OOO+@@@@@@@@@@@@@@@@@@@@@@@@@@@@@@@@@+OOOoooXXX                                           .XXXoooOOO",
"OOO@@@@@@@@@@@@@@@@@@@@@@@@@@@@@@@@@@+OOOoooXXX                                           .XXXoooOOO",
"OOO@@@@@@@@@@@@@@@@@@@@@@@@@@@@@@@@@@+OOOoooXXX                                            XXXoooOOO",
"+++@@@@@@@@@@@@@@@@@@@@@@@@@@@@@@@+++OoooXXX                                           ...XoooOOO+++",
"@@@@@@@@@@@@@@@@@@@@@@@@@@@@@@@@@@+OOOoooXX.                                           .XXXoooOOO@@@",
"@@@@@@@@@@@@@@@@@@@@@@@@@@@@@@@@@@+OOooooXX.                                           .XXXoooOOO@@@",
"@@@@@@@@@@@@@@@@@@@@@@@@@@@@@@@+++OoooXXX..                                         ...XoXoOOO+++@@@",
"@@@@@@@@@@@@@@@@@@@@@@@@@@@@@@@+OOoooXXX.                                           .XXXoooOO+@@@@@@",
"@@@@@@@@@@@@@@@@@@@@@@@@@@@@@@@+OOoooXXX.                                           .XXXoooOOO@@@@@@",
"@@@@@@@@@@@@@@@@@@@@@@@@@@@@+++OoOoXXX..                                         ...XXXoOoO+++@@@@@@",
"@@@@@@@@@@@@@@@@@@@@@@@@@@@@OOOoooXXX.                                           .XXoooOOO+@@@@@@@@@",
"@@@@@@@@@@@@@@@@@@@@@@@@@@@@+OOoooXXX.                                           .XXXoooOO+@@@@@@@@@",
"@@@@@@@@@@@@@@@@@@@@@@@@@+++OOOoooX..                                         ...XXXoooO+++@@@@@@@@@",
"@@@@@@@@@@@@@@@@@@@@@@@@@OOOoooXXX.                                           XXXoooOOO+@@@@@@@@@@@@",
"@@@@@@@@@@@@@@@@@@@@@@@@@OOOoooXXX.                                           .XXoooOOO+@@@@@@@@@@@@",
"@@@@@@@@@@@@@@@@@@@@@@+++OOOoooX..                                          . XXXoooO+O+@@@@@@@@@@@@",
"@@@@@@@@@@@@@@@@@@@@@@OOOoooXXX                                            XXXoooOOO+@@@@@@@@@@@@@@@",
"@@@@@@@@@@@@@@@@@@@@@@OOOoooXXX                                            XXXoooOOO+@@@@@@@@@@@@@@@",
"@@@@@@@@@@@@@@@@@@@@@+OOOoooXXX                                            XXXoooOOO+@@@@@@@@@@@@@@@",
"@@@@@@@@@@@@@@@@@@+OOOoooXXX                                            XXXoooOOO+@@@@@@@@@@@@@@@@@@",
"@@@@@@@@@@@@@@@@@@+OOOoooXXX                                            XXXoooOOO+@@@@@@@@@@@@@@@@@@",
"@@@@@@@@@@@@@@@@@@+OOOoooXXX                                            XXXoooOOO+@@@@@@@@@@@@@@@@@@"
};
