/* XPM */
static char *dirt1671179627[] = {
/* columns rows colors chars-per-pixel */
"100 100 33 1 ",
"  c #55390C",
". c #5A3D0C",
"X c #5E410C",
"o c #64460C",
"O c #67490F",
"+ c #6D4C0A",
"@ c #714F09",
"# c #73510B",
"$ c #79570C",
"% c #7C5A0E",
"& c #6A4B10",
"* c #765312",
"= c #795616",
"- c #7D5B17",
"; c #815E16",
": c #825F18",
"> c #81600F",
", c #856314",
"< c #8C6B13",
"1 c #856318",
"2 c #896719",
"3 c #8A6819",
"4 c #906F15",
"5 c #916F1A",
"6 c #927215",
"7 c #997817",
"8 c #94731A",
"9 c #98771B",
"0 c #9D7C1B",
"q c #A07F1B",
"w c #A6861C",
"e c #A7881C",
"r c #A8881D",
/* pixels */
"@@#0wwwwwwwwwwwwwwewwwwwwwwwwwwwwr833323333:=========================@@@@@@@@@+@@X        .&Oo   &OO",
"@@@0ewwwwwwewewwwwwwwwwwwrwwwwwwww8333332322=========================@@@@@@@@@@@@.        X&&X   &OO",
"@@@wwwwwewwwewewwwewwewwwrwwwwwwwr7<33323322=================;======*+@@@@@@@@@@@.        .O&o  .&OO",
"7w7wwwwwwwwwwwwwwwwwwwwwwwwwwwwwwwqqw823322222:===23:2222222::221222,==*=*===*===@@@.        .oOo@@&",
"ewwwwwewwewwwwwewwwwwwewwwwwwwwwrwwww9333323332===2332323333333333231============#@@o        .OO&@@@",
"wwwwwwwwwwwwwwwwwwwwwwwwwrwwwwwwwwwww922333333:===2333333333333333331============@@@.        .OOO@@@",
"wwwwewwwwwwewwe0557wwwewq>>>qwwwwwwwrqqq8333332222233333333:;;:3322321221,,-=====;,1@++.     .OOO@@@",
"wwewwwwwewwwwwe0225ewweew#@@qwwwwwwwrwww023233223323323233:;==:333333333233======232%@@o     .OOO@@@",
"wwwrwwrrweeeewe0225rrrrrw@@@qwrwwwwwwwwr0222222233333333333:==:333333322333======133$@@o     .O&&@@@",
"wwwwww058888qww0233885,>>oXX><>7rwwwwwwwq0q9000099322333333:::23322332221--11,===;-:*@@o      ...@@@",
"wwwwww5222228ww0232231@@@   +@+7rwwwwwwwwrwrwewrrw333323:333333333223322===333-=====$@@X        .@@@",
"wwwwwr5222230ee0333231@@@   +@@7wwrwwwwwwwwwewrwww3332333333333332222332===233======@@@o        .@@@",
"rww0999993;;3005;:::;;@@@   +@@7rwwwwwwwwwwq990www3339995333333323098332::1232======##@o      ooO@@@",
"www322qrr:==:22;====*#@@@   +@@7wwwwwwwwwwwq223www333qrr5333333329ee0233333233-=====*@@o     .#@@@@@",
"www532qwr3==:32:======@@@   +@@7ewwwwwewrwwq235wrw333www5333333328eew232333333*=====#@@o     .@@@@@+",
"00q5859qq3;;133:===**$@@@XXo>>>qwwwreq00qwrq2330q933399q3:::333328708222111333-=====#@@O     .@@#,>>",
"223qrr522333333:==*@@@@@@@@@qrwwwwwwr8228wwq233222333222===:333323222322===232-=====#@@X    ..@@$rer",
"333qrr532233332:===@@@@@@@@@qwwwwwwwr8228www222232333233:==:333333333322===232-=====$@@o     .@@$www",
"3339005232::::::===@@@+++@@@qwwwwwwwwq859qq9883232323333:=:1333332112332--:121====**@o+X     .@@$www",
"323===132:==;=;===*@@+   @@@qwwwwwwwwwww9228www233333233222232333:===333222======*@@X        .@@$www",
"333===:33:========*@@@  .@@@qwwwwwwwwwwwq228www2333323333322222331==-223332======*@@X        .@@$www",
"333;==:22:====*$==@++o   @@@qwwwwwwwwwwq9123ww02323332222322222231==-222222======@@@X      ..X@@$www",
"333=========*@@@@@+      @@@qwwwww8232221==-333332322===223:==:331===============#@@X .   .OOO@@$www",
"333=========@@@@@@+      @@@qwwwww8233221==-323333333===123;==:33:===============#@@.     .OO&@@$www",
"222=**======@@@@@@o.     @$$qwwwww8333331-=-222223333-==122;==1221===============@@@X     .&O&@@$wwq",
"@@#@@@@@@@@@o        .@@@qqqwww6330ww9333222332===233232;==:22:============@@@@@@X     XOOX  .@@@#$@",
"@@@@@@@@@@@@X         @@>qwwwwq5220rr9233322332===233333-==133:============@@@@@#X     XOOX  .#@@@@@",
"@@@@@@@@@@@@o        .@@@qwwwww5329wr8233232232===233232-==132;============@@@@@@X     XOOo  .@@@@@@",
"OOO... ..+@@@@+o      @@@<55535qww9353231=--333222-=-223222:--==========@@@@@@...   XOO.  .OoOOO+@@@",
"OOO.     o@@@@@o     .@@#,33332qwr8222331==-223333===223223-============@@@@@@.     XOOX  .OOOOO+@@@",
"OOO.     o@@@@@+      @@#:<:3:3qww8222331==-223333===233323:============@@@@*@      o&&X  .OOOOO+++#",
"OOO.  o+++@@@@@+++o+++@@@>$$$$$3855222---121------===------==========@*@X.XX..       ..XooOOOo...++O",
"OOo   +@@@@@@@@@@@@@@@@@@@@@@@@,22333-==-332=======================;*@@+               .OOOOOO   OOO",
"OOO   +@@+@@+@@@@@@@+@@@++@@+@+,333331==:332===========-=========*==*@@+               .ooOOOo . OO+",
"@+++oo<444664646<66646466666666,=*%%%===----===================*#*#@@@@@oooo+oo+o+ooo+o+++@+++ooO+++",
"@@@@@@7reerreerrrrrreweewereewr%+#@@+*========================#+@@@@@@@@#@@@@@@@+@@@@@@@@@@@@@@@@#@@",
"@+@+@@7eewwwwrwwwwwwwwwwewwwwww-++@@@#-=======================*+@@++@@@@@@@@@+@@@@@@@+@+@++@@@@@@@@@",
"<<<<<<7eewwwwwwwwwwwwewweewewww8<<<<<%***$*#*#$#***$*##**#*#**##@><<<<<<<<<<<<<<<<<<<<<<<4<<<<2<<<<<",
"eeeeerwwwwwewwwwwwwwwwwwwwwwwwwrwrrrr<+@@@@@@@@@+@@@@@@@@@@@@@@@@>rewwrrwrrrwwrrqrrrrrqrrrrrwwwreewe",
"wwewwwewwwwwwwwrrwwwwwwwwewewwwweewwr<@+@@@@@#@@##@@@@@@#@@@@@@@@>rwwwwwwwwwwwwwwwwwwwwrwwwwwwwwwwww",
"wwwwwwwwwwwwwwwwwwwwwwwww900wwwq70wwr4$-$@@@oo+ooooOO+++ooo+@@$>>4ewwwwwwwwwwwwwwwwwqrrqrwrwwqqq0www",
"wwwwwewwrwwwwwwwwwwwwwwrw222www5229wr933;@@o         OOO.  o@@<rerewwwwwwwewewwwwwwrrwwrrwwwwq22<www",
"wwewwewwwwwwwwwwwwwwwwwww222qww5220wr933;@@+         oOO.  o@@<rwwewwewwweweeewwwwrwrrrqrrwwwq233eww",
"wwwwwwwwwwwwrwwwwwwqqwwww8859wq8557qq823,#$@.X.      oOOX..+@@<rwwwwwwwwwwwq0qwwwqqqqrrqqqqwrq2<8eww",
"wwwwwwwwwwwwwwwwwwq2<5wwwwww322qre822323233,@@+      oOO@@@@@@<wwwwwwwwwwew233www622qqrq:38wwq223wee",
"wwwwwwwwwwwrwwwwwe0214wwwwww522qee822332332,@@+      OOO@@@@@@<ewwwwwewewww223qwr423qrq9328wwq223wwe",
"wrewwwewwwwwwqqwwwq555qqwqww3330ww523222,33,@@+      ooo@@@@$$<eewwewqwqqwq434qwq4339qq8539qqq358ww0",
"wwwwwwwwwwwr9338rwwwrq332223333222223:==;33,@@+         +@@6wwwewwwrq232233wew323333333qwwq238wwq232",
"wwwwwwrwwwwr8225rwwwwq333333323333332:*=;3<;@@+         +@@6ewwwwwww0223323wee3233323329er0225eew333",
"wwwwwwwwwwww0238wwwwwq233232333332332:=::23;@@+         @@#<ewwwwwww0233333www4233333329we7225ww0232",
"wwrwwwwrr8333335wrq333333333322332322233:=;*@@+      +@+6wwwwwwwe0333333332333232qww8223333332333333",
"wwwwwwwww8333338rwq333332323333333332333:=*#@@+      +@@7ewwwwwwe0222323233333332qee8233323333333323",
"wwwwwwwwr8333338wwq32332333332223333333::==*@@+      @@+7wewwwwwr0323333332223332qwe8333323323323333",
"555qww5539wq8333533333333323332::=:33::=;*;*@@+      +@@7ewwwe7438ww0333qww3332334533333333333332-==",
"222www5230wr9233333333332323333-==:32:=====*@@+      +@@7ewwee0236erq235www3232333223232332323322===",
"22<qrr5320rr9333332323233333323-=::32:=====*@@+      +@@7wwwee9128er0233wew2333333222333323333322===",
"3225550qq8555332322:=:33::-:333:::;=:======*#@@      +@@7ew0559qq95553335653233223223331=-:332---112",
"333322qrr822223333:===323===:33333:========*@@@      +@@7ww8219rr0223233222233333323323:==-321==-333",
"222332qrr8332332232===533===333333:========*@#@      +@@7rr8219rr0233232333333233323333:==:331==-233",
"0003335585333333322:::333::::::333:=====*#*@XXX      +@@<8800q9885333333323323;;;2333222111331===-;-",
"rww3332223223333232333333333===:22:=====$@@o         +@@:320wr9222333333333332-==1323333333331======",
"rer5323333323223223333333333:==:32======#@@+         +@@;22qrr0233323233333332===1332333233332======",
"999333333:;:2332:::332:::233:::::::=====*@@+         @@@,225805123323222:;1233:1;2331;:2332;:;======",
"222233333;==;33:==:232===333322:========#@@o         @@@,233322233333322===233333223-==;33:=========",
"333233333-==:221==-232===223333-=========@@o         O@@,333332333333332===233333333--=-331=========",
";,;23211::-::111--1322:-:11:111-=======-*@@+      ...@@@%,-,332:;2332111--1111223111---112-=========",
"@@@,32-==133:==-332233332===============$@@+     .OO&@@@@@+,33,==-331===332===122-==133-============",
"@@@232-==133:==-333333322===============*@@o      oOO@@@@+#%331==-331===322-==223===2331============",
"++@;,,;--111-==-211211211=============*=@Oo+.... .ooO+++@@@%,,,---111---111===,22===112-============",
"OOO+@@,23-===========================#@#o  .OOOO&O   OOO+@@@+@-331===333==================-=========",
"OOO@@@,231===========================*@@+  .OOOO&O   oO&@#@@@@%331==-232-=========================*=",
"OOO+@@;2,-*=====================*==*=*@#o...oOO@&&.. ooO+++@@@-,2:==-221============================",
"OOOOOO@@#@@@@@@#============@@@@@@+@@@@@@@@@@@#===&@+.  oOOO@@@@+#===============================@@@",
"OOOOOO@@@@@@@@@#============#@@@@@@@@@#@@@@@@+#===@@@.  oOO+@@@@@#=-========*===================*@@@",
"OOOOOO@@@@+#@@##============#@@@#@##@@@@@@@@#@====#@@. .oOO+#@@@@*===============================@@@",
"OOOOOOOOOOOO+@#@@#@@@@@@@@@@=========================@@++#@+OO&@@@@@@@@@@@##@#=====-======*@#@@#+   ",
"OOOOOOOOOOOO+#@@@@@@@@@@@@@@=========================#@@#@++OO+@@@@@@@@@@@@@@@=*==========*@@@@@@   ",
"OOOOOOOOOOOO+@+#@@@@@@@@@@@@=========================##+@@#+OO+@@@@@@@@@@@@#@@*===========*@@@@@+   ",
"OOOOOOOOO+#+#=*======$===121=============================*=#++#@@+ .. ..OO++@@###@##@@#@@#@@@@@@@+++",
"OOOOOOOOO+#@*============233-====-=========================#@#@@@o      OOO@@@@@@@@@@@@@@@@@@@@@@@@@",
"OOOOOOOOO+@@*============222-==============================#@+@++o      OOO#@@@@@@@@@@@@@@@@@@@@@@@@",
"OOOOOOOOO+@@*==-1,1======---====================-===============*+++OoOXX X+@@@@@@@@*****=*=*=**==**",
"OOOOO+OOO@@@*==-331==============================================*@#+OOO   #@@@@@@@@*===============",
"OOOOOOOOO+#+#=--33,=======================-====================-=*@#+OOo   +@@@+@@@@================",
"OOOXX.+++-%,,11-:::1::===1:1111======-12:==-:1:==================*#@++++oo+#=*******================",
"OOO   o@@-333321==-332===333332:=====123:==-332==================*@@@@###@#=========================",
"OOO   +##%332331==-232===333332-=====:221==-332==================*@@@@@#@++=========================",
"OOO.  o@@,333332;::::::::2332321::-:::::-==-:::=====-============$@@@@@##*$=================-=======",
"OOO   ++@-333333331===3333332332233331===========================*@@@@@#========-===================",
"OOOX  +#@,333333321==-3333333333223321===========================*@@@@@#=====-=============-========",
"OOO   ++@,88<333885--:2332323331:1111:-:--:-==--::===--:-========*+@@@@#============--1-==----===;-;",
"OOO   +@@6rr7338rrq333333333232-=====:333321==-232===232-========*#@@@+@============123-==-322==-333",
"OOO.  o@@4ew8228rwq222333333332--====:223232==-232-==223-========*@@@@@#============1221=--231==-323",
"OOO...#>-9weq888wq0383232323332:-----:212222---232===122-========#@@@@@#=========---112----121---111",
"OOO+@@7rrwwwwwr9228www333323233232322:==:322223322===============*@@@@@#=========222-==1221==-222===",
"OO+@@@7rwwwwwwr9228www323333333333222:==:332233332===============*@@@@@#=========222-==1331==-322===",
"O+O$$$7ewwwwwee0<58ww03533333323233231==;322222232-=======-======*@@@@@#======--=122---:331==;221-=-",
"@@#7wwwwwwwwwwwwww0233www3333333333332333322==-233333-==233,=====*@@@@@#======223-==1332233331==-223",
"@@#0ewwwwwwwewwwweq235www3333233233333333331===333333-==233-=====*@@@@@@======133-==1333333331===333",
"@@@0wwwewwewwwwwwwq233www3333333333233233331===333333===233-=====*@@@@@@======222-==:333323331==-323"
};
