/* XPM */
static char *Untitled__3_1671459734[] = {
/* columns rows colors chars-per-pixel */
"100 100 5 1 ",
"  c #8ED5DA",
". c #A0DBDD",
"X c #AADEDF",
"o c #BBE2E2",
"O c #C9E3E4",
/* pixels */
"OOOOOOOOOOOOOOOOoooXXX...                                               ...XXXoooOOOOOOOOOOOOOOOOOOO",
"OOOOOOOOOOOOOOOooooXXX...                                               ...XXXoooOOOOOOOOOOOOOOOOOOO",
"OOOOOOOOOOOOOOOOoooXXX...                                               ...XXXoooOOOOOOOOOOOOOOOOOOO",
"OOOOOOOOOOOOOoooXXX...                                               ...XXXoooOOOOOOOOOOOOOOOOOOOOOO",
"OOOOOOOOOOOOooooXXX...                                               ...XXXoooOOOOOOOOOOOOOOOOOOOOOO",
"OOOOOOOOOOOOOoooXXX...                                               ...XXXoooOOOOOOOOOOOOOOOOOOOOOO",
"OOOOOOOOOOoOoXXX...                                               ...XXXoooOOoOOOOOOOOOOOOOOOOOOOOOO",
"OOOOOOOOOOoooXXX...                                              ....XXXoooOOOOOOOOOOOOOOOOOOOOOOOOO",
"OOOOOOOOOooooXXX...                                               ...XXXoooOOOOOOOOOOOOOOOOOOOOOOOOO",
"OOOOOOoOOoXXX.....                                              ..XXXoooOoOOOOOOOOOOOOOOOOOOOOOOOOOO",
"OOOOOOOooXXX....                                              ....XXXoooOOOOOOOOOOOOOOOOOOOOOOOOOOOO",
"OOOOOOOooXXX...                                               ....XXXoooOOOOOOOOOOOOOOOOOOOOOOOOOOOO",
"OOOOoOoooX.....                                             . ...XoooOOoOOOOOOOOOOOOOOOOOOOOOOOOOOOO",
"OOOoooXXX....                                              ....XXXooOOOOOOOOOOOOOOOOOOOOOOOOOOOOOOOO",
"OOOoooXXX....                                               ...XXXooOOOOOOOOOOOOOOOOOOOOOOOOOOOOOOOO",
"OOOoooXXX...                                              ....XXXoOoOOOOOOOOOOOOOOOOOOOOOOOOOOOOOOOO",
"oooXXX....                                              ...XXXoooOOOOOOOOOOOOOOOOOOOOOOOOOOOOOOOOOOO",
"oooXXX....                                              ...XXXoooOOOOOOOOOOOOOOOOOOOOOOOOOOOOOOOOOOO",
"oooXXX...                                               ...XXXoOOoOOOOOOOOOOOOOOOOOOOOOOOOOOOOOOOOoO",
"XXX...                                               ...XXXoooOOOOOOOOOOOOOOOOOOOOOOOOOOOOOOOOOOOooo",
"XXX...                                               ...XXXoooOOOOOOOOOOOOOOOOOOOOOOOOOOOOOOOOOOOooo",
"XXX...                                               ...XXXoooOOOOOOOOOOOOOOOOOOOOOOOOOOOOOOOOOOOooo",
"...                                               ...XXXoooOOOOOOOOOOOOOOOOOOOOOOOOOOOOOOOOOOOoooXXX",
"...                                               ...XXXoooOOOOOOOOOOOOOOOOOOOOOOOOOOOOOOOOOOooooXXX",
"...                                               ...XXXoooOOOOOOOOOOOOOOOOOOOOOOOOOOOOOOOOOOOoooXXX",
"                                               ...XXXoooOOOOOOOOOOOOOOOOOOOOOOOOOOOOOOOOOOOoooXXX...",
"                                               ...XXXoooOOOOOOOOOOOOOOOOOOOOOOOOOOOOOOOOOOooooXXX...",
"                                               ...XXXoooOOOOOOOOOOOOOOOOOOOOOOOOOOOOOOOOOOOoooXXX...",
"                                            ...XXXoooOOOOOOOOOOOOOOOOOOOOOOOOOOOOOOOOOOOoooXXX...   ",
"                                            ...XXXoooOOOOOOOOOOOOOOOOOOOOOOOOOOOOOOOOOOooooXXX...   ",
"                                            ...XXXoooOOOOOOOOOOOOOOOOOOOOOOOOOOOOOOOOOOOoooXXX...   ",
"                                        . ..XXXoooOoOOOOOOOOOOOOOOOOOOOOOOOOOOOOOOOOOoOoXXX...      ",
"                                        ....XXXoooOOOOOOOOOOOOOOOOOOOOOOOOOOOOOOOOOOOoooXXX...      ",
"                                         ...XXXoooOOOOOOOOOOOOOOOOOOOOOOOOOOOOOOOOOOoooXXXX...      ",
"                                      . .XXXoooOOoOOOOOOOOOOOOOOOOOOOOOOOOOOOOOOOOoOoXXX....        ",
"                                     ....XXXoooOOOOOOOOOOOOOOOOOOOOOOOOOOOOOOOOOOOooXXX....         ",
"                                      ...XXXoooOOOOOOOOOOOOOOOOOOOOOOOOOOOOOOOOOOoooXXX....         ",
"                                    ....XoooOoOOOOOOOOOOOOOOOOOOOOOOOOOOOOOOOOOoOoXoX.....          ",
"                                  ....XXXooOOOOOOOOOOOOOOOOOOOOOOOOOOOOOOOOOOOoooXXX....            ",
"                                  ....XXXooOOOOOOOOOOOOOOOOOOOOOOOOOOOOOOOOOOOOooXXX...             ",
"                                . ...XXXoOOoOOOOOOOOOOOOOOOOOOOOOOOOOOOOOOOOoOoooXXX...             ",
"                               ...XXXoooOOOOOOOOOOOOOOOOOOOOOOOOOOOOOOOOOOOoooXXX....               ",
"                                ..XXXXooOOOOOOOOOOOOOOOOOOOOOOOOOOOOOOOOOOOoooXXX....               ",
"                             . ...XXXoOoOOOOOOOOOOOOOOOOOOOOOOOOOOOOOOOOOoOoooXXX...                ",
"                            ...XXXoooOOOOOOOOOOOOOOOOOOOOOOOOOOOOOOOOOOOoooXXX...                   ",
"                            ...XXXoooOOOOOOOOOOOOOOOOOOOOOOOOOOOOOOOOOOOoooXXX...                   ",
"                            ...XXXoooOOOOOOOOOOOOOOOOOOOOOOOOOOOOOOOOOOOoooXXX...                   ",
"                         ...XXXoooOOOOOOOOOOOOOOOOOOOOOOOOOOOOOOOOOOOoooXXX...                      ",
"                         ...XXXoooOOOOOOOOOOOOOOOOOOOOOOOOOOOOOOOOOOooooXXX...                      ",
"                         ...XXXoooOOOOOOOOOOOOOOOOOOOOOOOOOOOOOOOOOOOoooXXX...                      ",
"                      ...XXXoooOOOOOOOOOOOOOOOOOOOOOOOOOOOOOOOOOOOoooXXX...                         ",
"                      ...XXXoooOOOOOOOOOOOOOOOOOOOOOOOOOOOOOOOOOOooooXXX...                         ",
"                      ...XXXoooOOOOOOOOOOOOOOOOOOOOOOOOOOOOOOOOOOOoooXXX...                         ",
"                   ...XXXoooOOOOOOOOOOOOOOOOOOOOOOOOOOOOOOOOOOOoooXXX...                            ",
"                   ...XXXoooOOOOOOOOOOOOOOOOOOOOOOOOOOOOOOOOOOooooXXX...                            ",
"                   ...XXXoooOOOOOOOOOOOOOOOOOOOOOOOOOOOOOOOOOOOoooXXX...                            ",
"                ...XXXoooOOoOOOOOOOOOOOOOOOOOOOOOOOOOOOOOOOOoOoXXX...                               ",
"               ....XXXoooOOOOOOOOOOOOOOOOOOOOOOOOOOOOOOOOOOOoooXXX...                               ",
"                ...XXXoooOOOOOOOOOOOOOOOOOOOOOOOOOOOOOOOOOOooooXXX...                               ",
"              ..XXXoooOoOOOOOOOOOOOOOOOOOOOOOOOOOOOOOOOOOoOoXXX.....                                ",
"            ....XXXoooOOOOOOOOOOOOOOOOOOOOOOOOOOOOOOOOOOOooXXX....                                  ",
"            ....XXXoooOOOOOOOOOOOOOOOOOOOOOOOOOOOOOOOOOOoooXXX...                                   ",
"          . ...XoooOOoOOOOOOOOOOOOOOOOOOOOOOOOOOOOOOOOoOoooX.....                                   ",
"         ....XXXooOOOOOOOOOOOOOOOOOOOOOOOOOOOOOOOOOOOoooXXX....                                     ",
"          ...XXXooOOOOOOOOOOOOOOOOOOOOOOOOOOOOOOOOOOOoooXXX....                                     ",
"        ....XXXoOoOOOOOOOOOOOOOOOOOOOOOOOOOOOOOOOOOoOoooXXX...                                      ",
"      ...XXXoooOOOOOOOOOOOOOOOOOOOOOOOOOOOOOOOOOOOoooXXX....                                        ",
"      ...XXXoooOOOOOOOOOOOOOOOOOOOOOOOOOOOOOOOOOOOoooXXX....                                        ",
"     ....XXXoOOoOOOOOOOOOOOOOOOOOOOOOOOOOOOOOOOOoOoooXXX...                                         ",
"   ...XXXoooOOOOOOOOOOOOOOOOOOOOOOOOOOOOOOOOOOOoooXXX...                                            ",
"   ...XXXoooOOOOOOOOOOOOOOOOOOOOOOOOOOOOOOOOOOOoooXXX...                                            ",
"   ...XXXoooOOOOOOOOOOOOOOOOOOOOOOOOOOOOOOOOOOOoooXXX...                                            ",
"...XXXoooOOOOOOOOOOOOOOOOOOOOOOOOOOOOOOOOOOOoooXXX...                                            ...",
"...XXXoooOOOOOOOOOOOOOOOOOOOOOOOOOOOOOOOOOOooooXXX...                                            ...",
"...XXXoooOOOOOOOOOOOOOOOOOOOOOOOOOOOOOOOOOOOoooXXX...                                            ...",
"XXXoooOOOOOOOOOOOOOOOOOOOOOOOOOOOOOOOOOOOoooXXX...                                            ...XXX",
"XXXoooOOOOOOOOOOOOOOOOOOOOOOOOOOOOOOOOOOooooXXX...                                            ...XXX",
"XXXoooOOOOOOOOOOOOOOOOOOOOOOOOOOOOOOOOOOOoooXXX...                                           ....XXX",
"oooOOOOOOOOOOOOOOOOOOOOOOOOOOOOOOOOOOOoooXXX...                                           ....XXXooo",
"oooOOOOOOOOOOOOOOOOOOOOOOOOOOOOOOOOOOooooXXX...                                            ...XXXooo",
"oooOOOOOOOOOOOOOOOOOOOOOOOOOOOOOOOOOOOoooXXX...                                            ...XXXooo",
"OoOOOOOOOOOOOOOOOOOOOOOOOOOOOOOOOOOoOoXXX...                                           . ..XXXoooOOO",
"OOOOOOOOOOOOOOOOOOOOOOOOOOOOOOOOOOOoooXXX...                                           ....XXXoooOOO",
"OOOOOOOOOOOOOOOOOOOOOOOOOOOOOOOOOOoooXXXX...                                            ...XXXoooOOO",
"OOOOOOOOOOOOOOOOOOOOOOOOOOOOOOOOoOoXXX....                                          . ..X.XoooOOoOOO",
"OOOOOOOOOOOOOOOOOOOOOOOOOOOOOOOOooXXX....                                           ....XXXooOOOOOOO",
"OOOOOOOOOOOOOOOOOOOOOOOOOOOOOOOoooXXX....                                            ...XXXoooOOOOOO",
"OOOOOOOOOOOOOOOOOOOOOOOOOOOOOoOoXoX.....                                         . ....XoXoOoOOOOOOO",
"OOOOOOOOOOOOOOOOOOOOOOOOOOOOoooXXX....                                           ...XXXoooOOOOOOOOOO",
"OOOOOOOOOOOOOOOOOOOOOOOOOOOOOooXXX...                                             ...XXXooOOOOOOOOOO",
"OOOOOOOOOOOOOOOOOOOOOOOOOOoOoooXXX...                                         . ....XXXoOOoOOOOOOOOO",
"OOOOOOOOOOOOOOOOOOOOOOOOOoooXXX....                                           ...XXXoooOOOOOOOOOOOOO",
"OOOOOOOOOOOOOOOOOOOOOOOOOoooXXX....                                           ...XXXoooOOOOOOOOOOOOO",
"OOOOOOOOOOOOOOOOOOOOOOOoOoooXXX...                                          . ...XXXoOoOOOOOOOOOOOOO",
"OOOOOOOOOOOOOOOOOOOOOOoooXXX...                                            ...XXXoooOOOOOOOOOOOOOOOO",
"OOOOOOOOOOOOOOOOOOOOOOoooXXX...                                            ...XXXoooOOOOOOOOOOOOOOOO",
"OOOOOOOOOOOOOOOOOOOOOOoooXXX...                                            ...XXXoooOOOOOOOOOOOOOOOO",
"OOOOOOOOOOOOOOOOOOOoooXXX...                                            ...XXXoooOOOOOOOOOOOOOOOOOOO",
"OOOOOOOOOOOOOOOOOOooooXXX...                                            ...XXXoooOOOOOOOOOOOOOOOOOOO",
"OOOOOOOOOOOOOOOOOOOoooXXX...                                            ...XXXoooOOOOOOOOOOOOOOOOOOO"
};
