/* XPM */
static char *adventurer_jump_001670773750[] = {
/* columns rows colors chars-per-pixel */
"100 75 25 1 ",
"  c None",
". c #2D3835",
"X c #61412B",
"o c #704634",
"O c #3A4542",
"+ c #595652",
"@ c #555459",
"# c #6B6970",
"$ c #8F3232",
"% c #AD3B3B",
"& c #804D36",
"* c #8F563B",
"= c #8F5E47",
"- c #AB4343",
"; c #9E6451",
": c #AB765E",
"> c #D95763",
", c #C9957F",
"< c #D9A066",
"1 c #847E87",
"2 c #368899",
"3 c #9BADB7",
"4 c #EEC39A",
"5 c #CBDBFC",
"6 c #D6EBFF",
/* pixels */
"                                                                                                    ",
"                                                                                                    ",
"                                                                                                    ",
"                                                                                                    ",
"                                                                                                    ",
"                                                                                                    ",
"                                                                                                    ",
"                                                                                                    ",
"                                                                                                    ",
"                                                                                                    ",
"                                                                                                    ",
"                                                                                                    ",
"                                                                                                    ",
"                                                                                                    ",
"                                                                                                    ",
"                                                                                                    ",
"                                                                                                    ",
"                                                                                                    ",
"                                                                                                    ",
"                                                                                                    ",
"                                                                                                    ",
"                                                                                                    ",
"                                                                                                    ",
"                                                                                                    ",
"                                                                                                    ",
"                                                                                                    ",
"                                                                                                    ",
"                                                                                                    ",
"                                                  ,,,,,,,,                                          ",
"                                                  ,,,,,,,,                                          ",
"                                                  oo::::;;,,,,                                      ",
"                                                  oo::::;;,,,,                                      ",
"                                                oo;;oo::::;;::::                                    ",
"                                                oo;;oo::::;;::::                                    ",
"                                                ;;;;;;;;::;;;;::                                    ",
"                                                ;;;;;;;;::;;;;::                                    ",
"                                                oo;;;;oooo;;oo::                                    ",
"                                                oo;;;;oooo;;oo::                                    ",
"                                          ----$$%%oo::6622<<22oo                                    ",
"                                          ----$$%%oo::6622<<22oo                                    ",
"                                        >>--11##$$oooo44444444                                      ",
"                                        >>--11##$$oooo44444444                                      ",
"                                      >>--111111--$$>>>><<<<11                                      ",
"                                      >>--111111--$$>>>><<<<11                                      ",
"                                    >>$$111111++**--$$$$>>>>>>                                      ",
"                                    >>$$111111++**--$$$$>>>>>>                                      ",
"                                    >>####++++33****--$$$$$$$$##                                    ",
"                                    >>####++++33****--$$$$$$$$##                                    ",
"                                  >>$$555533  &&3333**@@----++5555                                  ",
"                                  >>$$555533  &&3333**@@----++5555                                  ",
"                                >>--$$555533  &&&&&&&&@@3333++335555                                ",
"                                >>--$$555533  &&&&&&&&@@3333++335555                                ",
"                                --$$--555533  ****&&@@@@&&**    335555                              ",
"                                --$$--555533  ****&&@@@@&&**    335555                              ",
"                                --$$--553333  ****&&11##&&      ++##11                              ",
"                                --$$--553333  ****&&11##&&      ++##11                              ",
"                              ----$$$$3333++  &&**1111@@**                                          ",
"                              ----$$$$3333++  &&**1111@@**                                          ",
"                              --$$$$$$11##++  &&&&&&&&&&&&                                          ",
"                              --$$$$$$11##++  &&&&&&&&&&&&                                          ",
"                              --$$$$$$$$$$  &&............&&                                        ",
"                              --$$$$$$$$$$  &&............&&                                        ",
"                                $$$$        ..OO........OO..                                        ",
"                                $$$$        ..OO........OO..                                        ",
"                                            OOOO..  ....OOOO                                        ",
"                                            OOOO..  ....OOOO                                        ",
"                                            OOOO..    ..OOOO                                        ",
"                                            OOOO..    ..OOOO                                        ",
"                                            &&XX        ..&&                                        ",
"                                            &&XX        ..&&                                        ",
"                                        ==&&==XX        XX&&                                        ",
"                                        ==&&==XX        XX&&                                        ",
"                                        ========      XX&&                                          ",
"                                        ========      XX&&                                          ",
"                                        &&XX          XXXX&&                                        ",
"                                        &&XX          XXXX&&                                        "
};
