/* XPM */
static char *adventurer_jump_021670773750[] = {
/* columns rows colors chars-per-pixel */
"100 75 23 1 ",
"  c None",
". c #2D3835",
"X c #61412B",
"o c #704634",
"O c #3A4542",
"+ c #595652",
"@ c #555459",
"# c #6B6970",
"$ c #8F3232",
"% c #804D36",
"& c #8F563B",
"* c #8F5E47",
"= c #AB4343",
"- c #9E6451",
"; c #AB765E",
": c #D95763",
"> c #C9957F",
", c #847E87",
"< c #368899",
"1 c #9BADB7",
"2 c #EEC39A",
"3 c #CBDBFC",
"4 c #D6EBFF",
/* pixels */
"                                                                                                    ",
"                                                                                                    ",
"                                                                                                    ",
"                                                                                                    ",
"                                                                                                    ",
"                                                                                                    ",
"                                                                                                    ",
"                                                                                                    ",
"                                                                                                    ",
"                                                                                                    ",
"                                                                                                    ",
"                                                                                                    ",
"                                                                                                    ",
"                                                                                                    ",
"                                                                                                    ",
"                                                                                                    ",
"                                                                                                    ",
"                                                                                                    ",
"                                                                                                    ",
"                                                                                                    ",
"                                                                                                    ",
"                                                                                                    ",
"                                                  >>>>>>++##,,                                      ",
"                                                  >>>>>>++##,,                                      ",
"                                                  oo;;;;++1111                                      ",
"                                                  oo;;;;++1111                                      ",
"                                                oo--oo;;;;1133;;##,,                                ",
"                                                oo--oo;;;;1133;;##,,                                ",
"                                                --------;;113333++33                                ",
"                                                --------;;113333++33                                ",
"                                                oo----oooo113333111133                              ",
"                                                oo----oooo113333111133                              ",
"                                                  oo;;44<<113333  111133                            ",
"                                                  oo;;44<<113333  111133                            ",
"                                                %%oooo2222++,,##  ++1133                            ",
"                                                %%oooo2222++,,##  ++1133                            ",
"                                              ====++++++++,,,,##++####,,                            ",
"                                              ====++++++++,,,,##++####,,                            ",
"                                              ::==##,,,,,,####::::##,,                              ",
"                                              ::==##,,,,,,####::::##,,                              ",
"                                            ::==$$########$$$$$$$$,,                                ",
"                                            ::==$$########$$$$$$$$,,                                ",
"                                            ::==$$%%1111&&@@====                                    ",
"                                            ::==$$%%1111&&@@====                                    ",
"                                          ::$$==$$%%%%%%%%@@%%11                                    ",
"                                          ::$$==$$%%%%%%%%@@%%11                                    ",
"                                          ::====%%&&&&%%@@@@%%                                      ",
"                                          ::====%%&&&&%%@@@@%%                                      ",
"                                        ::$$==$$%%&&&&%%,,##%%                                      ",
"                                        ::$$==$$%%&&&&%%,,##%%                                      ",
"                                        ::====$$&&%%&&,,,,@@                                        ",
"                                        ::====$$&&%%&&,,,,@@                                        ",
"                                      ::$$==$$$$%%%%%%&&&&&&                                        ",
"                                      ::$$==$$$$%%%%%%&&&&&&                                        ",
"                                      ::==$$$$  OOOOOO........OO                                    ",
"                                      ::==$$$$  OOOOOO........OO                                    ",
"                                    ::$$==  $$  OOOO............OO                                  ",
"                                    ::$$==  $$  OOOO............OO                                  ",
"                                    ::$$  ==  OOOOOO............OO                                  ",
"                                    ::$$  ==  OOOOOO............OO                                  ",
"                                  ::$$==      OOOOOO..  XXXX....                                    ",
"                                  ::$$==      OOOOOO..  XXXX....                                    ",
"                                  ::          OO....  XXXX%%..                                      ",
"                                  ::          OO....  XXXX%%..                                      ",
"                                            %%OO..    XX%%                                          ",
"                                            %%OO..    XX%%                                          ",
"                                            ****..      %%                                          ",
"                                            ****..      %%                                          ",
"                                          ****%%                                                    ",
"                                          ****%%                                                    ",
"                                        **%%%%                                                      ",
"                                        **%%%%                                                      ",
"                                        %%XX                                                        ",
"                                        %%XX                                                        ",
"                                        XX                                                          ",
"                                        XX                                                          "
};
