/* XPM */
static char *adventurer_jump_061671037284[] = {
/* columns rows colors chars-per-pixel */
"100 75 25 1 ",
"  c None",
". c #2D3835",
"X c #61412B",
"o c #704634",
"O c #3A4542",
"+ c #595652",
"@ c #555459",
"# c #6B6970",
"$ c #8F3232",
"% c #AD3B3B",
"& c #804D36",
"* c #8F563B",
"= c #8F5E47",
"- c #AB4343",
"; c #9E6451",
": c #AB765E",
"> c #D95763",
", c #C9957F",
"< c #D9A066",
"1 c #847E87",
"2 c #368899",
"3 c #9BADB7",
"4 c #EEC39A",
"5 c #CBDBFC",
"6 c #D6EBFF",
/* pixels */
"                                                                                                    ",
"                                                                                                    ",
"                                                                                                    ",
"                                                                                                    ",
"                                                                                                    ",
"                                                                                                    ",
"                                                                                                    ",
"                                                                                                    ",
"                                                                                                    ",
"                                                                                                    ",
"                                                                                                    ",
"                                                                                                    ",
"                                                                                                    ",
"                                                                                                    ",
"                                                                                                    ",
"                                                                                                    ",
"                                                                                                    ",
"                                                                                                    ",
"                                                                                                    ",
"                                                                                                    ",
"                                                                                                    ",
"                                                                  ----                              ",
"                                                                  ----                              ",
"                                                      XXXX&&          -->>                          ",
"                                                      XXXX&&          -->>                          ",
"                                                    &&&&&&    &&&&$$------                          ",
"                                                    &&&&&&    &&&&$$------                          ",
"                                              ........XXXX..&&==XX$$$$-->>                          ",
"                                              ........XXXX..&&==XX$$$$-->>                          ",
"                                              ............OOOOOO  $$$$-->>>>                        ",
"                                              ............OOOOOO  $$$$-->>>>                        ",
"                                                ##11....OOOOOOOO  $$$$-->>>>                        ",
"                                                ##11....OOOOOOOO  $$$$-->>>>                        ",
"                                                3355&&&&&&&&&&&&  $$$$$$>>>>                        ",
"                                                3355&&&&&&&&&&&&  $$$$$$>>>>                        ",
"                                                  @@1111**&&**&&$$$$$$$$>>>>                        ",
"                                                  @@1111**&&**&&$$$$$$$$>>>>                        ",
"                                            11333355555555&&&&&&$$$$$$-->>>>                        ",
"                                            11333355555555&&&&&&$$$$$$-->>>>                        ",
"                                            ##333333555511**&&&&$$$$$$-->>>>                        ",
"                                            ##333333555511**&&&&$$$$$$-->>>>                        ",
"                                              11&&@@++++11&&$$$$--$$-->>>>                          ",
"                                              11&&@@++++11&&$$$$--$$-->>>>                          ",
"                                                --@@++++##$$--$$--$$-->>                            ",
"                                                --@@++++##$$--$$--$$-->>                            ",
"                                            <<<<$$$$--**$$$$$$------>>>>                            ",
"                                            <<<<$$$$--**$$$$$$------>>>>                            ",
"                                            444444>>$$$$-------->>>>                                ",
"                                            444444>>$$$$-------->>>>                                ",
"                                        oo22<<2266oo>>--$$$$$$>>>>                                  ",
"                                        oo22<<2266oo>>--$$$$$$>>>>                                  ",
"                                        ::oo;;oooo;;;;oo$$$$>>>>                                    ",
"                                        ::oo;;oooo;;;;oo$$$$>>>>                                    ",
"                                        ::::;;::;;;;;;;;%%>>                                        ",
"                                        ::::;;::;;;;;;;;%%>>                                        ",
"                                        ::::;;::::oo;;oo                                            ",
"                                        ::::;;::::oo;;oo                                            ",
"                                              ,,,,::oo                                              ",
"                                              ,,,,::oo                                              ",
"                                              ,,,,,,,,                                              ",
"                                              ,,,,,,,,                                              ",
"                                                                                                    ",
"                                                                                                    ",
"                                                                                                    ",
"                                                                                                    ",
"                                                                                                    ",
"                                                                                                    ",
"                                                                                                    ",
"                                                                                                    ",
"                                                                                                    ",
"                                                                                                    ",
"                                                                                                    ",
"                                                                                                    ",
"                                                                                                    ",
"                                                                                                    "
};
