/* XPM */
static char *adventurer_jump_031670773750[] = {
/* columns rows colors chars-per-pixel */
"100 75 23 1 ",
"  c None",
". c #2D3835",
"X c #61412B",
"o c #704634",
"O c #3A4542",
"+ c #595652",
"@ c #555459",
"# c #6B6970",
"$ c #8F3232",
"% c #804D36",
"& c #8F563B",
"* c #8F5E47",
"= c #AB4343",
"- c #9E6451",
"; c #AB765E",
": c #D95763",
"> c #C9957F",
", c #D9A066",
"< c #847E87",
"1 c #368899",
"2 c #9BADB7",
"3 c #EEC39A",
"4 c #CBDBFC",
/* pixels */
"                                                                                                    ",
"                                                                                                    ",
"                                                                                                    ",
"                                                                                                    ",
"                                                                                                    ",
"                                                                                                    ",
"                                                                                                    ",
"                                                                                                    ",
"                                                                                                    ",
"                                                                                                    ",
"                                                                                                    ",
"                                                                                                    ",
"                                                    ++##<<                                          ",
"                                                    ++##<<                                          ",
"                                                  >>++2222                                          ",
"                                                  >>++2222                                          ",
"                                                  oo;;2244>>>>##<<                                  ",
"                                                  oo;;2244>>>>##<<                                  ",
"                                                oo--oo2244--;;;;44                                  ",
"                                                oo--oo2244--;;;;44                                  ",
"                                                ----224444----;;2244                                ",
"                                                ----224444----;;2244                                ",
"                                                oo--224444--oo;;222244                              ",
"                                                oo--224444--oo;;222244                              ",
"                                            ::::  oo++##<<,,11oo++2244                              ",
"                                            ::::  oo++##<<,,11oo++2244                              ",
"                                          ::$$$$::++##<<333333++####<<                              ",
"                                          ::$$$$::++##<<333333++####<<                              ",
"                                        ::$$$$$$==++<<<<,,,,====##<<                                ",
"                                        ::$$$$$$==++<<<<,,,,====##<<                                ",
"                                      ::========++##<<==$$$$::::::                                  ",
"                                      ::========++##<<==$$$$::::::                                  ",
"                                    ::====$$$$$$++####&&==$$$$$$$$                                  ",
"                                    ::====$$$$$$++####&&==$$$$$$$$                                  ",
"                                  ::$$==$$==$$  %%%%2222&&@@====                                    ",
"                                  ::$$==$$==$$  %%%%2222&&@@====                                    ",
"                                  ::====$$$$    %%%%%%%%%%@@%%22                                    ",
"                                  ::====$$$$    %%%%%%%%%%@@%%22                                    ",
"                                ::$$==$$$$      %%&&&&%%@@@@%%                                      ",
"                                ::$$==$$$$      %%&&&&%%@@@@%%                                      ",
"                                ::==$$$$        %%&&&&%%<<##%%                                      ",
"                                ::==$$$$        %%&&&&%%<<##%%                                      ",
"                              ::$$==$$$$        &&%%&&<<<<@@                                        ",
"                              ::$$==$$$$        &&%%&&<<<<@@                                        ",
"                            ::====$$$$$$        %%%%%%%%%%%%                                        ",
"                            ::====$$$$$$        %%%%%%%%%%%%                                        ",
"                                ==$$            OOOOOOOO......OO                                    ",
"                                ==$$            OOOOOOOO......OO                                    ",
"                                              OOOOOOOO............                                  ",
"                                              OOOOOOOO............                                  ",
"                                              ****%%..  XX........                                  ",
"                                              ****%%..  XX........                                  ",
"                                            **%%%%      XXXX%%..                                    ",
"                                            **%%%%      XXXX%%..                                    ",
"                                            %%XX          %%                                        ",
"                                            %%XX          %%                                        ",
"                                            XX            %%                                        ",
"                                            XX            %%                                        ",
"                                                                                                    ",
"                                                                                                    ",
"                                                                                                    ",
"                                                                                                    ",
"                                                                                                    ",
"                                                                                                    ",
"                                                                                                    ",
"                                                                                                    ",
"                                                                                                    ",
"                                                                                                    ",
"                                                                                                    ",
"                                                                                                    ",
"                                                                                                    ",
"                                                                                                    ",
"                                                                                                    ",
"                                                                                                    ",
"                                                                                                    ",
"                                                                                                    "
};
