/* XPM */
static char *adventurer_jump_051671037284[] = {
/* columns rows colors chars-per-pixel */
"100 75 24 1 ",
"  c None",
". c #2D3835",
"X c #61412B",
"o c #704634",
"O c #3A4542",
"+ c #595652",
"@ c #555459",
"# c #6B6970",
"$ c #8F3232",
"% c #804D36",
"& c #8F563B",
"* c #8F5E47",
"= c #AB4343",
"- c #9E6451",
"; c #AB765E",
": c #D95763",
"> c #C9957F",
", c #D9A066",
"< c #847E87",
"1 c #368899",
"2 c #9BADB7",
"3 c #EEC39A",
"4 c #CBDBFC",
"5 c #D6EBFF",
/* pixels */
"                                                                                                    ",
"                                                                                                    ",
"                                                                                                    ",
"                                                                                                    ",
"                                                                                                    ",
"                                                                                                    ",
"                                                                                                    ",
"                                                                                                    ",
"                                                                                                    ",
"                                                                                                    ",
"                                                                                                    ",
"                                                                                                    ",
"                                                                                                    ",
"                                                                                                    ",
"                                                                                                    ",
"                                                                                                    ",
"                                                                                                    ",
"                                                                                                    ",
"                                                                                                    ",
"                                                                                                    ",
"                                                                                                    ",
"                                    ::::::::::                                                      ",
"                                    ::::::::::                                                      ",
"                                ::::====$$$$$$::::::::                                              ",
"                                ::::====$$$$$$::::::::                                              ",
"                              ::====$$$$$$$$$$========::                                            ",
"                              ::====$$$$$$$$$$========::                                            ",
"                            ::====    **XX$$$$$$$$$$====::                                          ",
"                            ::====    **XX$$$$$$$$$$====::                                          ",
"                              ==      %%XX  $$$$$$$$$$==::::                                        ",
"                              ==      %%XX  $$$$$$$$$$==::::                                        ",
"                                      %%**OOOO$$$$$$======::::                                      ",
"                                      %%**OOOO$$$$$$======::::                                      ",
"                                        %%OOOO%%%%%%44<<<<##::                                      ",
"                                        %%OOOO%%%%%%44<<<<##::                                      ",
"                                    %%  ..OOOO&&%%%%4444++++$$::                                    ",
"                                    %%  ..OOOO&&%%%%4444++++$$::                                    ",
"                                    XX%%XX..OO%%%%&&4444++++$$$$::                                  ",
"                                    XX%%XX..OO%%%%&&4444++++$$$$::                                  ",
"                                    XX%%XX....&&&&&&4422$$==$$::oo--oo                              ",
"                                    XX%%XX....&&&&&&4422$$==$$::oo--oo                              ",
"                                      %%......<<<<%%2222&&$$==oo------oo>>                          ",
"                                      %%......<<<<%%2222&&$$==oo------oo>>                          ",
"                                      %%......<<<<@@2222==$$oooo----oo;;>>                          ",
"                                      %%......<<<<@@2222==$$oooo----oo;;>>                          ",
"                                        ....  @@##@@<<##$$::3355oo--;;;;>>                          ",
"                                        ....  @@##@@<<##$$::3355oo--;;;;>>                          ",
"                                        ....      %%%%==$$,,3311oo;;;;>>>>                          ",
"                                        ....      %%%%==$$,,3311oo;;;;>>>>                          ",
"                                                      ==$$,,33,,------>>                            ",
"                                                      ==$$,,33,,------>>                            ",
"                                                        $$::  11oo;;;;                              ",
"                                                        $$::  11oo;;;;                              ",
"                                                              oo;;;;;;                              ",
"                                                              oo;;;;;;                              ",
"                                                                                                    ",
"                                                                                                    ",
"                                                                                                    ",
"                                                                                                    ",
"                                                                                                    ",
"                                                                                                    ",
"                                                                                                    ",
"                                                                                                    ",
"                                                                                                    ",
"                                                                                                    ",
"                                                                                                    ",
"                                                                                                    ",
"                                                                                                    ",
"                                                                                                    ",
"                                                                                                    ",
"                                                                                                    ",
"                                                                                                    ",
"                                                                                                    ",
"                                                                                                    ",
"                                                                                                    "
};
