/* XPM */
static char *adventurer_run_031670773644[] = {
/* columns rows colors chars-per-pixel */
"100 75 24 1 ",
"  c None",
". c #2D3835",
"X c #61412B",
"o c #704634",
"O c #3A4542",
"+ c #595652",
"@ c #555459",
"# c #6B6970",
"$ c #8F3232",
"% c #804D36",
"& c #8F563B",
"* c #8F5E47",
"= c #AB4343",
"- c #9E6451",
"; c #AB765E",
": c #D95763",
"> c #C9957F",
", c #D9A066",
"< c #847E87",
"1 c #368899",
"2 c #9BADB7",
"3 c #EEC39A",
"4 c #CBDBFC",
"5 c #D6EBFF",
/* pixels */
"                                                                                                    ",
"                                                                                                    ",
"                                                                                                    ",
"                                                                                                    ",
"                                                                                                    ",
"                                                                                                    ",
"                                                                                                    ",
"                                                                                                    ",
"                                                                                                    ",
"                                                                                                    ",
"                                                                                                    ",
"                                                                                                    ",
"                                                                                                    ",
"                                                                                                    ",
"                                                                                                    ",
"                                                                                                    ",
"                                                                                                    ",
"                                                                                                    ",
"                                                                                                    ",
"                                                                                                    ",
"                                                        >>>>>>>>                                    ",
"                                                        >>>>>>>>                                    ",
"                                                        oo;;;;-->>>>                                ",
"                                                        oo;;;;-->>>>                                ",
"                                                      oo--oo;;;;--;;;;                              ",
"                                                      oo--oo;;;;--;;;;                              ",
"                                                      --------;;----;;                              ",
"                                                      --------;;----;;                              ",
"                                                      oo----oooo--oo;;                              ",
"                                                      oo----oooo--oo;;                              ",
"                                                      ==oo;;5511,,11oo                              ",
"                                                      ==oo;;5511,,11oo                              ",
"                                                    ====oooo33333333                                ",
"                                                    ====oooo33333333                                ",
"                                                ##<<<<##$$::::,,,,==::                              ",
"                                                ##<<<<##$$::::,,,,==::                              ",
"                                          4422<<<<<<####==$$$$::::::$$<<                            ",
"                                          4422<<<<<<####==$$$$::::::$$<<                            ",
"                                        ::444422++++22&&&&==$$$$$$$$$$<<                            ",
"                                        ::444422++++22&&&&==$$$$$$$$$$<<                            ",
"                                        ==444422==%%%%2222&&@@@@====##<<                            ",
"                                        ==444422==%%%%2222&&@@@@====##<<                            ",
"                                    ====$$==4422++%%%%%%%%%%@@@@2222####444444<<                    ",
"                                    ====$$==4422++%%%%%%%%%%@@@@2222####444444<<                    ",
"                                    ==$$$$==$$22##%%%%&&%%@@@@%%&&++++22222222##                    ",
"                                    ==$$$$==$$22##%%%%&&%%@@@@%%&&++++22222222##                    ",
"                                  ==$$$$$$$$$$    &&&&%%<<<<##%%    ++222222++                      ",
"                                  ==$$$$$$$$$$    &&&&%%<<<<##%%    ++222222++                      ",
"                                    $$$$$$$$      &&%%<<<<<<@@&&                                    ",
"                                    $$$$$$$$      &&%%<<<<<<@@&&                                    ",
"                                    $$$$$$$$      @@@@@@######%%                                    ",
"                                    $$$$$$$$      @@@@@@######%%                                    ",
"                                                %%%%%%%%%%%%%%%%                                    ",
"                                                %%%%%%%%%%%%%%%%                                    ",
"                                                %%......OOOOOOOOOO                                  ",
"                                                %%......OOOOOOOOOO                                  ",
"                                                ..........OOOOOOOOOO                                ",
"                                                ..........OOOOOOOOOO                                ",
"                                              ................OOOOOO                                ",
"                                              ................OOOOOO                                ",
"                                              ........    %%%%....                                  ",
"                                              ........    %%%%....                                  ",
"                                            ........    XX%%**..                                    ",
"                                            ........    XX%%**..                                    ",
"                                            ......      %%**                                        ",
"                                            ......      %%**                                        ",
"                                          %%%%XX          **                                        ",
"                                          %%%%XX          **                                        ",
"                                          %%XX                                                      ",
"                                          %%XX                                                      ",
"                                        %%XX                                                        ",
"                                        %%XX                                                        ",
"                                        XXXX                                                        ",
"                                        XXXX                                                        ",
"                                        XXXXXX                                                      ",
"                                        XXXXXX                                                      "
};
