/* XPM */
static char *adventurer_run_021670773644[] = {
/* columns rows colors chars-per-pixel */
"100 75 23 1 ",
"  c None",
". c #2D3835",
"X c #61412B",
"o c #704634",
"O c #3A4542",
"+ c #595652",
"@ c #555459",
"# c #6B6970",
"$ c #8F3232",
"% c #804D36",
"& c #8F563B",
"* c #AB4343",
"= c #9E6451",
"- c #AB765E",
"; c #D95763",
": c #C9957F",
"> c #D9A066",
", c #847E87",
"< c #368899",
"1 c #9BADB7",
"2 c #EEC39A",
"3 c #CBDBFC",
"4 c #D6EBFF",
/* pixels */
"                                                                                                    ",
"                                                                                                    ",
"                                                                                                    ",
"                                                                                                    ",
"                                                                                                    ",
"                                                                                                    ",
"                                                                                                    ",
"                                                                                                    ",
"                                                                                                    ",
"                                                                                                    ",
"                                                                                                    ",
"                                                                                                    ",
"                                                                                                    ",
"                                                                                                    ",
"                                                                                                    ",
"                                                                                                    ",
"                                                                                                    ",
"                                                                                                    ",
"                                                                                                    ",
"                                                                                                    ",
"                                                                                                    ",
"                                                                                                    ",
"                                                                                                    ",
"                                                                                                    ",
"                                                                                                    ",
"                                                                                                    ",
"                                                          ::::::::                                  ",
"                                                          ::::::::                                  ",
"                                                          oo----==::::                              ",
"                                                          oo----==::::                              ",
"                                                        oo==oo----==----                            ",
"                                                        oo==oo----==----                            ",
"                                                        ========--====--                            ",
"                                                        ========--====--                            ",
"                                                        oo====oooo==oo--                            ",
"                                                        oo====oooo==oo--                            ",
"                                ****;;;;;;          **%%$$oo--44<<>><<oo                            ",
"                                ****;;;;;;          **%%$$oo--44<<>><<oo                            ",
"                                  **$$$$$$;;;;;;;;**####**oooo22222222                              ",
"                                  **$$$$$$;;;;;;;;**####**oooo22222222                              ",
"                                  $$$$******;;$$**##,,,,&&**$$$$>>>>;;                              ",
"                                  $$$$******;;$$**##,,,,&&**$$$$>>>>;;                              ",
"                                  $$$$**$$$$****##,,,,++&&&&**$$$$$$$$                              ",
"                                  $$$$**$$$$****##,,,,++&&&&**$$$$$$$$                              ",
"                                      $$  $$$$$$##33++%%1111&&@@****                                ",
"                                      $$  $$$$$$##33++%%1111&&@@****                                ",
"                                                33333333%%%%%%@@1111                                ",
"                                                33333333%%%%%%@@1111                                ",
"                                                1111333333,,@@@@%%&&33,,                            ",
"                                                1111333333,,@@@@%%&&33,,                            ",
"                                                    111133##,,##%%1111++                            ",
"                                                    111133##,,##%%1111++                            ",
"                                                    &&%%++,,,,@@&&                                  ",
"                                                    &&%%++,,,,@@&&                                  ",
"                                                    @@@@@@######                                    ",
"                                                    @@@@@@######                                    ",
"                                                    %%&&&&&&%%%%                                    ",
"                                                    %%&&&&&&%%%%                                    ",
"                                                    ....OOOO..OO                                    ",
"                                                    ....OOOO..OO                                    ",
"                                                    ....OOOO..OO                                    ",
"                                                    ....OOOO..OO                                    ",
"                                                    %%XX..OO..OO                                    ",
"                                                    %%XX..OO..OO                                    ",
"                                                &&&&%%XX..OO..OO                                    ",
"                                                &&&&%%XX..OO..OO                                    ",
"                                                &&XXXXXXXX..&&                                      ",
"                                                &&XXXXXXXX..&&                                      ",
"                                                XX      ..XX%%                                      ",
"                                                XX      ..XX%%                                      ",
"                                                          XX%%                                      ",
"                                                          XX%%                                      ",
"                                                          XX%%                                      ",
"                                                          XX%%                                      ",
"                                                          XXXXXX                                    ",
"                                                          XXXXXX                                    "
};
