/* XPM */
static char *adventurer_run_011670773643[] = {
/* columns rows colors chars-per-pixel */
"100 75 26 1 ",
"  c None",
". c #2D3835",
"X c #61412B",
"o c #704634",
"O c #3A4542",
"+ c #37767D",
"@ c #595652",
"# c #555459",
"$ c #6B6970",
"% c #8F3232",
"& c #AD3B3B",
"* c #804D36",
"= c #8F563B",
"- c #8F5E47",
"; c #AB4343",
": c #9E6451",
"> c #AB765E",
", c #D95763",
"< c #C9957F",
"1 c #D9A066",
"2 c #847E87",
"3 c #368899",
"4 c #9BADB7",
"5 c #EEC39A",
"6 c #CBDBFC",
"7 c #D6EBFF",
/* pixels */
"                                                                                                    ",
"                                                                                                    ",
"                                                                                                    ",
"                                                                                                    ",
"                                                                                                    ",
"                                                                                                    ",
"                                                                                                    ",
"                                                                                                    ",
"                                                                                                    ",
"                                                                                                    ",
"                                                                                                    ",
"                                                                                                    ",
"                                                                                                    ",
"                                                                                                    ",
"                                                                                                    ",
"                                                                                                    ",
"                                                                                                    ",
"                                                                                                    ",
"                                                                                                    ",
"                                                                                                    ",
"                                                                                                    ",
"                                                                                                    ",
"                                                          <<<<<<<<                                  ",
"                                                          <<<<<<<<                                  ",
"                                                          oo>>>>::<<<<                              ",
"                                                          oo>>>>::<<<<                              ",
"                                                        oo::oo>>>>::>>>>                            ",
"                                                        oo::oo>>>>::>>>>                            ",
"                                                        ::::::::>>::::>>                            ",
"                                                        ::::::::>>::::>>                            ",
"                                                        oo::::oooo::oo>>                            ",
"                                                        oo::::oooo::oo>>                            ",
"                                                      ;;&&oo>>77331133oo                            ",
"                                                      ;;&&oo>>77331133oo                            ",
"                                                ,,,,;;$$%%oooo55555555                              ",
"                                                ,,,,;;$$%%oooo55555555                              ",
"                                        ;;,,,,,,%%;;$$$$22%%%%,,1111;;                              ",
"                                        ;;,,,,,,%%;;$$$$22%%%%,,1111;;                              ",
"                                ;;;;;;;;%%%%;;;;;;%%$$22$$;;;;%%,,,,,,                              ",
"                                ;;;;;;;;%%%%;;;;;;%%$$22$$;;;;%%,,,,,,                              ",
"                                  ;;%%%%%%;;;;%%%%  2222$$====;;%%%%%%                              ",
"                                  ;;%%%%%%;;;;%%%%  2222$$====;;%%%%%%                              ",
"                                  %%%%%%;;%%%%      2222@@4444==;;;;;;                              ",
"                                  %%%%%%;;%%%%      2222@@4444==;;;;;;                              ",
"                                  %%%%;;%%%%        22$$@@==****4444                                ",
"                                  %%%%;;%%%%        22$$@@==****4444                                ",
"                                      %%          **$$666666666622==                                ",
"                                      %%          **$$666666666622==                                ",
"                                                  **@@6666666666$$==                                ",
"                                                  **@@6666666666$$==                                ",
"                                                  ==@@4444444444@@                                  ",
"                                                  ==@@4444444444@@                                  ",
"                                                  ########$$$$$$                                    ",
"                                                  ########$$$$$$                                    ",
"                                                  ****======****                                    ",
"                                                  ****======****                                    ",
"                                                **OO..........OO                                    ",
"                                                **OO..........OO                                    ",
"                                                OOOOOO..........OO                                  ",
"                                                OOOOOO..........OO                                  ",
"                                            **..OOOO............OO                                  ",
"                                            **..OOOO............OO                                  ",
"                                          --**..OOOO++      ......                                  ",
"                                          --**..OOOO++      ......                                  ",
"                                            --XXOO..          ......                                ",
"                                            --XXOO..          ......                                ",
"                                              **OO            ....**                                ",
"                                              **OO            ....**                                ",
"                                                                XX**                                ",
"                                                                XX**                                ",
"                                                                ****                                ",
"                                                                ****                                ",
"                                                                XX**                                ",
"                                                                XX**                                ",
"                                                                  XXXX                              ",
"                                                                  XXXX                              "
};
