/* XPM */
static char *adventurer_idle_2_011670773506[] = {
/* columns rows colors chars-per-pixel */
"100 75 41 1 ",
"  c None",
". c #2E3936",
"X c #2F3A37",
"o c #303B38",
"O c #313C39",
"+ c #52401E",
"@ c #5F432D",
"# c #5E442E",
"$ c #61412B",
"% c #695B27",
"& c #704634",
"* c #3A4542",
"= c #394643",
"- c #384744",
"; c #595652",
": c #6B6970",
"> c #8F3232",
", c #AD3B3B",
"< c #804D36",
"1 c #804E37",
"2 c #8F563B",
"3 c #8F5E47",
"4 c #8E5F48",
"5 c #AB4343",
"6 c #8D6049",
"7 c #9E6451",
"8 c #AB765E",
"9 c #D95763",
"0 c #B39932",
"q c #C9957F",
"w c #D9A066",
"e c #EBC659",
"r c #847E87",
"t c #368899",
"y c #85909F",
"u c #9BADB7",
"i c #EEC39A",
"p c #A5AEEA",
"a c #C2C8F0",
"s c #CBDBFC",
"d c #D6EBFF",
/* pixels */
"                                                                                                    ",
"                                                                                                    ",
"                                                                                                    ",
"                                                                                                    ",
"                                                                                                    ",
"                                                                                                    ",
"                                                                                                    ",
"                                                                                                    ",
"                                                                                                    ",
"                                                                                                    ",
"                                                                                                    ",
"                                                                                                    ",
"                                                                                                    ",
"                                                                                                    ",
"                                                                                                    ",
"                                                                                                    ",
"                                                                                                    ",
"                                                                                                    ",
"                                                                                                    ",
"                                                                                                    ",
"                                                                                                    ",
"                                                                                                    ",
"                                            qqqqqqqq                                                ",
"                                            qqqqqqqq                                                ",
"                                            &&888877qqqq                                            ",
"                                            &&888877qqqq                                            ",
"                                          &&77&&8888778888                                          ",
"                                          &&77&&8888778888                                          ",
"                                          7777777788777788                                          ",
"                                          7777777788777788                                          ",
"                                          &&7777&&&&77&&88                                          ",
"                                          &&7777&&&&77&&88                                          ",
"                                          ,,&&88ddttwwtt&&                                          ",
"                                          ,,&&88ddttwwtt&&                                          ",
"                                        99>>&&&&iiiiiiii99                                          ",
"                                        99>>&&&&iiiiiiii99                                          ",
"                                      9955uu55>>>>wwww99>>                                          ",
"                                      9955uu55>>>>wwww99>>                                          ",
"                                    99>>>>uu555555>>>>>>,,                                          ",
"                                    99>>>>uu555555>>>>>>,,                                          ",
"                                    99>>rruu22ss55555555ssrr                                        ",
"                                    99>>rruu22ss55555555ssrr                                        ",
"                                    >>rrrr<<uuuu<<;;;;uuuu::rr                                      ",
"                                    >>rrrr<<uuuu<<;;;;uuuu::rr                                      ",
"                                    >>rr::<<2222<<;;;;<<22::::rr                                    ",
"                                    >>rr::<<2222<<;;;;<<22::::rr                                    ",
"                                  99ssrr::<<2222<<::::<<22;;ssssss                                  ",
"                                  99ssrr::<<2222<<::::<<22;;ssssss                                  ",
"                                  ssuu::>><<<<<<;;rrrr<<22  uussuu                                  ",
"                                  ssuu::>><<<<<<;;rrrr<<22  uussuu                                  ",
"                                99ss::;;>><<<<;;::rrrr::22  uuuuuu                                  ",
"                                99ss::;;>><<<<;;::rrrr::22  uuuuuu                                  ",
"                                ssuu::;;  ;;;;::rrrrrrrr    ;;;;;;                                  ",
"                                ssuu::;;  ;;;;::rrrrrrrr    ;;;;;;                                  ",
"                                ;;;;;;%%++2222;;::::::::                                            ",
"                                ;;;;;;%%++2222;;::::::::                                            ",
"                                0000;;++  <<############22                                          ",
"                                0000;;++  <<############22                                          ",
"                              eeppyy00>>====.........o..----                                        ",
"                              eeppyy00>>==**........o...----                                        ",
"                              ppyypp    --XXXXXXXXXXOOOO----                                        ",
"                              ppyypp    --XXXXXXXXXXOOOO----                                        ",
"                            ppyyaa    --==XX..        OOooOO                                        ",
"                            ppyyaa    --=-XX..        OOooOO                                        ",
"                          aayyaa      66....            .o<<@@                                      ",
"                          aayyaa      66....            o.<<@@                                      ",
"                        aayyaa      44<1##              <1<<<<                                      ",
"                        aayyaa      4411##              11<<<<                                      ",
"                      aayyaa        3311$$                <<<<                                      ",
"                      aayyaa        3311##                <<<<                                      ",
"                    aayypp          33$#                  $$<<                                      ",
"                    aayypp          33$#                  $$<<                                      ",
"                    aaaa            33<<                  $$<<                                      ",
"                    aaaa            33<<                  $$<<                                      ",
"                                  11<<                      $$1<                                    ",
"                                  11<<                      $$11                                    "
};
