/* XPM */
static char *adventurer_idle_2_031670773506[] = {
/* columns rows colors chars-per-pixel */
"100 75 39 1 ",
"  c None",
". c #2E3936",
"X c #2F3A37",
"o c #303B38",
"O c #313C39",
"+ c #52401E",
"@ c #5F432D",
"# c #5E442E",
"$ c #61412B",
"% c #704634",
"& c #3A4542",
"* c #394643",
"= c #384744",
"- c #595652",
"; c #6B6970",
": c #8F3232",
"> c #AD3B3B",
", c #804D36",
"< c #804E37",
"1 c #8F563B",
"2 c #8F5E47",
"3 c #8E5F48",
"4 c #AB4343",
"5 c #8D6049",
"6 c #9E6451",
"7 c #AB765E",
"8 c #D95763",
"9 c #C9957F",
"0 c #D9A066",
"q c #EBC659",
"w c #847E87",
"e c #368899",
"r c #85909F",
"t c #9BADB7",
"y c #EEC39A",
"u c #A5AEEA",
"i c #C2C8F0",
"p c #CBDBFC",
"a c #D6EBFF",
/* pixels */
"                                                                                                    ",
"                                                                                                    ",
"                                                                                                    ",
"                                                                                                    ",
"                                                                                                    ",
"                                                                                                    ",
"                                                                                                    ",
"                                                                                                    ",
"                                                                                                    ",
"                                                                                                    ",
"                                                                                                    ",
"                                                                                                    ",
"                                                                                                    ",
"                                                                                                    ",
"                                                                                                    ",
"                                                                                                    ",
"                                                                                                    ",
"                                                                                                    ",
"                                                                                                    ",
"                                                                                                    ",
"                                            99999999                                                ",
"                                            99999999                                                ",
"                                            %%7777669999                                            ",
"                                            %%7777669999                                            ",
"                                          %%66%%7777667777                                          ",
"                                          %%66%%7777667777                                          ",
"                                          6666666677666677                                          ",
"                                          6666666677666677                                          ",
"                                          %%6666%%%%66%%77                                          ",
"                                          %%6666%%%%66%%77                                          ",
"                                            %%77aaee00ee%%                                          ",
"                                            %%77aaee00ee%%                                          ",
"                                          >>%%%%yyyyyyyy88                                          ",
"                                          >>%%%%yyyyyyyy88                                          ",
"                                          ::::888800004488                                          ",
"                                          ::::888800004488                                          ",
"                                      8888tt44::::888888::                                          ",
"                                      8888tt44::::888888::                                          ",
"                                    8844wwtt444444::::::>>                                          ",
"                                    8844wwtt444444::::::>>                                          ",
"                                  884444wwtt11pp44444444pp                                          ",
"                                  884444wwtt11pp44444444pp                                          ",
"                                  8844wwww,,tttt,,----ttttwwww                                      ",
"                                  8844wwww,,tttt,,----ttttwwww                                      ",
"                                8844wwww;;,,1111,,----,,11;;;;ww                                    ",
"                                8844wwww;;,,1111,,----,,11;;;;ww                                    ",
"                              448844wwww;;,,1111,,;;;;,,11--;;;;ww                                  ",
"                              448844wwww;;,,1111,,;;;;,,11--;;;;ww                                  ",
"                            4488::ppww;;  ,,,,,,--wwww,,11  --pppppp                                ",
"                            4488::ppww;;  ,,,,,,--wwww,,11  --pppppp                                ",
"                            44::pptt;;    ,,,,--;;wwww;;11    ttpptt                                ",
"                            44::pptt;;    ,,,,--;;wwww;;11    ttpptt                                ",
"                          4444::pp;;--    ----;;wwwwwwww      tttttt                                ",
"                          4444::pp;;--    ----;;wwwwwwww      tttttt                                ",
"                          44  pptt;;--++  1111--;;;;;;;;      ------                                ",
"                          44  pptt;;--++  1111--;;;;;;;;      ------                                ",
"                              ------++    ,,############11                                          ",
"                              ------++    ,,############11                                          ",
"                            qquurr--    ****.........o..====                                        ",
"                            qquurr--    **&&........o...====                                        ",
"                            uurruu      ==XXXXXXXXXXOOOO====                                        ",
"                            uurruu      ==XXXXXXXXXXOOOO====                                        ",
"                          uurrii      ==**XX..        OOooOO                                        ",
"                          uurrii      ==*=XX..        OOooOO                                        ",
"                        iirrii        55....            .o,,@@                                      ",
"                        iirrii        55....            o.,,@@                                      ",
"                      iirrii        33,<##              ,<,,,,                                      ",
"                      iirrii        33<<##              <<,,,,                                      ",
"                    iirrii          22<<$$                ,,,,                                      ",
"                    iirrii          22<<##                ,,,,                                      ",
"                  iirruu            22$#                  $$,,                                      ",
"                  iirruu            22$#                  $$,,                                      ",
"                  iiii              22,,                  $$,,                                      ",
"                  iiii              22,,                  $$,,                                      ",
"                                  <<,,                      $$<,                                    ",
"                                  <<,,                      $$<<                                    "
};
