/* XPM */
static char *adventurer_idle_2_021670773505[] = {
/* columns rows colors chars-per-pixel */
"100 75 39 1 ",
"  c None",
". c #2E3936",
"X c #2F3A37",
"o c #303B38",
"O c #313C39",
"+ c #52401E",
"@ c #5F432D",
"# c #5E442E",
"$ c #61412B",
"% c #704634",
"& c #3A4542",
"* c #394643",
"= c #384744",
"- c #595652",
"; c #6B6970",
": c #8F3232",
"> c #AD3B3B",
", c #804D36",
"< c #804E37",
"1 c #8F563B",
"2 c #8F5E47",
"3 c #8E5F48",
"4 c #AB4343",
"5 c #8D6049",
"6 c #9E6451",
"7 c #AB765E",
"8 c #D95763",
"9 c #C9957F",
"0 c #D9A066",
"q c #EBC659",
"w c #847E87",
"e c #368899",
"r c #85909F",
"t c #9BADB7",
"y c #EEC39A",
"u c #A5AEEA",
"i c #C2C8F0",
"p c #CBDBFC",
"a c #D6EBFF",
/* pixels */
"                                                                                                    ",
"                                                                                                    ",
"                                                                                                    ",
"                                                                                                    ",
"                                                                                                    ",
"                                                                                                    ",
"                                                                                                    ",
"                                                                                                    ",
"                                                                                                    ",
"                                                                                                    ",
"                                                                                                    ",
"                                                                                                    ",
"                                                                                                    ",
"                                                                                                    ",
"                                                                                                    ",
"                                                                                                    ",
"                                                                                                    ",
"                                                                                                    ",
"                                                                                                    ",
"                                                                                                    ",
"                                            99999999                                                ",
"                                            99999999                                                ",
"                                            %%7777669999                                            ",
"                                            %%7777669999                                            ",
"                                          %%66%%7777667777                                          ",
"                                          %%66%%7777667777                                          ",
"                                          6666666677666677                                          ",
"                                          6666666677666677                                          ",
"                                          %%6666%%%%66%%77                                          ",
"                                          %%6666%%%%66%%77                                          ",
"                                            %%77aaee00ee%%                                          ",
"                                            %%77aaee00ee%%                                          ",
"                                          >>%%%%yyyyyyyy88                                          ",
"                                          >>%%%%yyyyyyyy88                                          ",
"                                        44::::888800004488                                          ",
"                                        44::::888800004488                                          ",
"                                      44::tt::::::888888::                                          ",
"                                      44::tt::::::888888::                                          ",
"                                    88::wwtt444444::::::>>                                          ",
"                                    88::wwtt444444::::::>>                                          ",
"                                    88wwwwtt11pp44444444ppwwww                                      ",
"                                    88wwwwtt11pp44444444ppwwww                                      ",
"                                  88wwwwww,,tttt,,----tttt;;;;ww                                    ",
"                                  88wwwwww,,tttt,,----tttt;;;;ww                                    ",
"                                  88ww;;--,,1111,,----,,11--;;;;ww                                  ",
"                                  88ww;;--,,1111,,----,,11--;;;;ww                                  ",
"                                88ppww--::,,1111,,;;;;,,11  --pppppp                                ",
"                                88ppww--::,,1111,,;;;;,,11  --pppppp                                ",
"                                pptt;;::::,,,,,,--wwww,,11    ttpptt                                ",
"                                pptt;;::::,,,,,,--wwww,,11    ttpptt                                ",
"                              88pp;;--::  ,,,,--;;wwww;;11    tttttt                                ",
"                              88pp;;--::  ,,,,--;;wwww;;11    tttttt                                ",
"                              pptt;;--++  ----;;wwwwwwww      ------                                ",
"                              pptt;;--++  ----;;wwwwwwww      ------                                ",
"                              ------++    1111--;;;;;;;;                                            ",
"                              ------++    1111--;;;;;;;;                                            ",
"                            qquurr--::    ,,############11                                          ",
"                            qquurr--::    ,,############11                                          ",
"                            uurruu44::  ****.........o..====                                        ",
"                            uurruu44::  **&&........o...====                                        ",
"                          uurrii::::    ==XXXXXXXXXXOOOO====                                        ",
"                          uurrii::::    ==XXXXXXXXXXOOOO====                                        ",
"                        iirrii        ==**XX..        OOooOO                                        ",
"                        iirrii        ==*=XX..        OOooOO                                        ",
"                      iirrii          55....            .o,,@@                                      ",
"                      iirrii          55....            o.,,@@                                      ",
"                    iirrii          33,<##              ,<,,,,                                      ",
"                    iirrii          33<<##              <<,,,,                                      ",
"                  iirruu            22<<$$                ,,,,                                      ",
"                  iirruu            22<<##                ,,,,                                      ",
"                  iiii              22$#                  $$,,                                      ",
"                  iiii              22$#                  $$,,                                      ",
"                                    22,,                  $$,,                                      ",
"                                    22,,                  $$,,                                      ",
"                                  <<,,                      $$<,                                    ",
"                                  <<,,                      $$<<                                    "
};
