/* XPM */
static char *adventurer_idle_2_001670773506[] = {
/* columns rows colors chars-per-pixel */
"100 75 44 1 ",
"  c None",
". c #2D3835",
"X c #2E3936",
"o c #2F3A37",
"O c #303B38",
"+ c #313C39",
"@ c #52401E",
"# c #5F432D",
"$ c #5E442E",
"% c #61412B",
"& c #695B27",
"* c #704634",
"= c #3A4542",
"- c #394643",
"; c #384744",
": c #595652",
"> c #555459",
", c #6B6970",
"< c #8F3232",
"1 c #AD3B3B",
"2 c #804D36",
"3 c #804E37",
"4 c #8F563B",
"5 c #8F5E47",
"6 c #8E5F48",
"7 c #AB4343",
"8 c #8D6049",
"9 c #8C614A",
"0 c #9E6451",
"q c #AB765E",
"w c #D95763",
"e c #B39932",
"r c #C9957F",
"t c #D9A066",
"y c #EBC659",
"u c #847E87",
"i c #368899",
"p c #85909F",
"a c #9BADB7",
"s c #EEC39A",
"d c #A5AEEA",
"f c #C2C8F0",
"g c #CBDBFC",
"h c #D6EBFF",
/* pixels */
"                                                                                                    ",
"                                                                                                    ",
"                                                                                                    ",
"                                                                                                    ",
"                                                                                                    ",
"                                                                                                    ",
"                                                                                                    ",
"                                                                                                    ",
"                                                                                                    ",
"                                                                                                    ",
"                                                                                                    ",
"                                                                                                    ",
"                                                                                                    ",
"                                                                                                    ",
"                                                                                                    ",
"                                                                                                    ",
"                                                                                                    ",
"                                                                                                    ",
"                                                                                                    ",
"                                                                                                    ",
"                                                                                                    ",
"                                                                                                    ",
"                                            rrrrrrrr                                                ",
"                                            rrrrrrrr                                                ",
"                                            **qqqq00rrrr                                            ",
"                                            **qqqq00rrrr                                            ",
"                                          **00**qqqq00qqqq                                          ",
"                                          **00**qqqq00qqqq                                          ",
"                                          00000000qq0000qq                                          ",
"                                          00000000qq0000qq                                          ",
"                                          **0000****00**qq                                          ",
"                                          **0000****00**qq                                          ",
"                                          11**qqhhiittii**                                          ",
"                                          11**qqhhiittii**                                          ",
"                                          <<****ssssssssww                                          ",
"                                          <<****ssssssssww                                          ",
"                                        7777<<wwwwtttt77ww                                          ",
"                                        7777<<wwwwtttt77ww                                          ",
"                                      ww77aa77<<<<wwwwww<<                                          ",
"                                      ww77aa77<<<<wwwwww<<                                          ",
"                                    ww77<<aa777777<<<<<<11                                          ",
"                                    ww77<<aa777777<<<<<<11                                          ",
"                                  ww<<<<uuaa44gg77777777gguu                                        ",
"                                  ww<<<<uuaa44gg77777777gguu                                        ",
"                                  ww<<uuuu22aaaa22>>>>aaaa,,uu                                      ",
"                                  ww<<uuuu22aaaa22>>>>aaaa,,uu                                      ",
"                                ww<<77uu,,22444422>>>>2244,,,,uu                                    ",
"                                ww<<77uu,,22444422>>>>2244,,,,uu                                    ",
"                              ww77<<gguu,,22224422,,,,2244::gggggg                                  ",
"                              ww77<<gguu,,22224422,,,,2244::gggggg                                  ",
"                              77<<ggaauu  222222>>uu,,2244  aaggaa                                  ",
"                              77<<ggaauu  222222>>uu,,2244  aaggaa                                  ",
"                              77<<gg,,::  2222>>uuuuuu>>    aaaaaa                                  ",
"                              77<<gg,,::  2222>>uuuuuu>>    aaaaaa                                  ",
"                            7777ggaa,,::  4444>>,,,,,,,,    ::::::                                  ",
"                            7777ggaa,,::  4444>>,,,,,,,,    ::::::                                  ",
"                            77<<::::::&&@@22$$$$$$$$$$$$22                                          ",
"                            77<<::::::&&@@22$%$$$$$$$$$$22                                          ",
"                            77<<eeee::@@  ;-o.o.XXXXXX----                                          ",
"                            77<<eeee::@@  --.o.oXXXXXX----                                          ",
"                              yyddppee  ;;-=ooo.XXXXooXX----                                        ",
"                              yyddppee  ;;--OoooXXXXooXX----                                        ",
"                              ddppdd    --OOOO++    XXoo-=--                                        ",
"                              ddppdd    --OOOO++    ..oo----                                        ",
"                            ddppff    88--OO++        oooo22%$                                      ",
"                            ddppff    88--OO++        oooO22%$                                      ",
"                          ffppff    8888$$OO            332222                                      ",
"                          ffppff    6898$$OO            332222                                      ",
"                        ffppff      5533$$                2222                                      ",
"                        ffppff      5533%$                2222                                      ",
"                      ffppff        55%$                  %%22                                      ",
"                      ffppff        55$%                  %%22                                      ",
"                    ffppdd          5522                  %%22                                      ",
"                    ffppdd          5522                  %%22                                      ",
"                    ffff          3322                      %%22                                    ",
"                    ffff          3222                      %%22                                    "                                                                                                "
};
