/* XPM */
static char *adventurer_idle_2_011670943752[] = {
/* columns rows colors chars-per-pixel */
"100 75 41 1 ",
"  c None",
". c #2A3633",
"X c #2B3734",
"o c #2C3835",
"O c #2D3936",
"+ c #513E18",
"@ c #613F27",
"# c #5F4129",
"$ c #5E422A",
"% c #695B22",
"& c #704431",
"* c #374340",
"= c #364441",
"- c #354542",
"; c #585551",
": c #6B6970",
"> c #902E2E",
", c #AE3838",
"< c #814C33",
"1 c #814D34",
"2 c #905538",
"3 c #8F5F46",
"4 c #905E45",
"5 c #AC4141",
"6 c #8E6047",
"7 c #9F6450",
"8 c #AC775E",
"9 c #DA5663",
"0 c #B49A2E",
"q c #DAA166",
"w c #ECC758",
"e c #857F88",
"r c #33899A",
"t c #8691A0",
"y c #9CAEB8",
"u c #CA9680",
"i c #EEC49B",
"p c #A6AFEB",
"a c #C3C9F0",
"s c #CCDCFC",
"d c #D7ECFF",
/* pixels */
"                                                                                                    ",
"                                                                                                    ",
"                                                                                                    ",
"                                                                                                    ",
"                                                                                                    ",
"                                                                                                    ",
"                                                                                                    ",
"                                                                                                    ",
"                                                                                                    ",
"                                                                                                    ",
"                                                                                                    ",
"                                                                                                    ",
"                                                                                                    ",
"                                                                                                    ",
"                                                                                                    ",
"                                                                                                    ",
"                                                                                                    ",
"                                                                                                    ",
"                                                                                                    ",
"                                                                                                    ",
"                                                                                                    ",
"                                                uuuuuuuu                                            ",
"                                                uuuuuuuu                                            ",
"                                            uuuu778888&&                                            ",
"                                            uuuu778888&&                                            ",
"                                          8888778888&&77&&                                          ",
"                                          8888778888&&77&&                                          ",
"                                          8877778877777777                                          ",
"                                          8877778877777777                                          ",
"                                          88&&77&&&&7777&&                                          ",
"                                          88&&77&&&&7777&&                                          ",
"                                          &&rrqqrrdd88&&,,                                          ",
"                                          &&rrqqrrdd88&&,,                                          ",
"                                          99iiiiiiii&&&&>>99                                        ",
"                                          99iiiiiiii&&&&>>99                                        ",
"                                          >>99qqqq>>>>55yy5599                                      ",
"                                          >>99qqqq>>>>55yy5599                                      ",
"                                          ,,>>>>>>555555yy>>>>99                                    ",
"                                          ,,>>>>>>555555yy>>>>99                                    ",
"                                        eess55555555ss22yyee>>99                                    ",
"                                        eess55555555ss22yyee>>99                                    ",
"                                      ee::yyyy;;;;<<yyyy<<eeee>>                                    ",
"                                      ee::yyyy;;;;<<yyyy<<eeee>>                                    ",
"                                    ee::::22<<;;;;<<2222<<::ee>>                                    ",
"                                    ee::::22<<;;;;<<2222<<::ee>>                                    ",
"                                  ssssss;;22<<::::<<2222<<::eess99                                  ",
"                                  ssssss;;22<<::::<<2222<<::eess99                                  ",
"                                  yyssyy  22<<eeee;;<<<<<<>>::yyss                                  ",
"                                  yyssyy  22<<eeee;;<<<<<<>>::yyss                                  ",
"                                  yyyyyy  22::eeee::;;<<<<>>;;::ss99                                ",
"                                  yyyyyy  22::eeee::;;<<<<>>;;::ss99                                ",
"                                  ;;;;;;    eeeeeeee::;;;;  ;;::yyss                                ",
"                                  ;;;;;;    eeeeeeee::;;;;  ;;::yyss                                ",
"                                            ::::::::;;2222++%%;;;;;;                                ",
"                                            ::::::::;;2222++%%;;;;;;                                ",
"                                          22$$$$$$$$$$$$<<  ++;;0000                                ",
"                                          22$$$$$$$$$$$$<<  ++;;0000                                ",
"                                        --==..oo........**==>>00ttppww                              ",
"                                        ---=..Xo........**==>>00ttppww                              ",
"                                        ----OOOOXXXXXXXXXX=-    ppttpp                              ",
"                                        ----OOOOXXXXXXXXXX==    ppttpp                              ",
"                                        oOooOO        ..XX==--    aattpp                            ",
"                                        ooooOO        ..XX==--    aattpp                            ",
"                                      $$<<XX            ....66      aattaa                          ",
"                                      $$<<XX            ...X66      aattaa                          ",
"                                      <<<<11              $$1166      aattaa                        ",
"                                      <<<<11              $$1146      aattaa                        ",
"                                      <<<<                $@<144        aattaa                      ",
"                                      <<<<                $$1144        aattaa                      ",
"                                      <<@@                  $@44          ppttaa                    ",
"                                      <<@@                  $$44          ppttaa                    ",
"                                      <<@@                  <<44            aaaa                    ",
"                                      <<@@                  <<44            aaaa                    ",
"                                    <<@@                      <<11                                  ",
"                                    <<@@                      <<11                                  "
};
