/* XPM */
static char *adventurer_idle_2_001670943753[] = {
/* columns rows colors chars-per-pixel */
"100 75 44 1 ",
"  c None",
". c #293532",
"X c #2A3633",
"o c #2B3734",
"O c #2C3835",
"+ c #2D3936",
"@ c #513E18",
"# c #613F27",
"$ c #5F4129",
"% c #5E422A",
"& c #695B22",
"* c #704431",
"= c #374340",
"- c #364441",
"; c #354542",
": c #585551",
"> c #545358",
", c #6B6970",
"< c #902E2E",
"1 c #AE3838",
"2 c #814C33",
"3 c #814D34",
"4 c #905538",
"5 c #8F5F46",
"6 c #905E45",
"7 c #AC4141",
"8 c #8E6047",
"9 c #8D6149",
"0 c #9F6450",
"q c #AC775E",
"w c #DA5663",
"e c #B49A2E",
"r c #DAA166",
"t c #ECC758",
"y c #857F88",
"u c #33899A",
"i c #8691A0",
"p c #9CAEB8",
"a c #CA9680",
"s c #EEC49B",
"d c #A6AFEB",
"f c #C3C9F0",
"g c #CCDCFC",
"h c #D7ECFF",
/* pixels */
"                                                                                                    ",
"                                                                                                    ",
"                                                                                                    ",
"                                                                                                    ",
"                                                                                                    ",
"                                                                                                    ",
"                                                                                                    ",
"                                                                                                    ",
"                                                                                                    ",
"                                                                                                    ",
"                                                                                                    ",
"                                                                                                    ",
"                                                                                                    ",
"                                                                                                    ",
"                                                                                                    ",
"                                                                                                    ",
"                                                                                                    ",
"                                                                                                    ",
"                                                                                                    ",
"                                                                                                    ",
"                                                                                                    ",
"                                                aaaaaaaa                                            ",
"                                                aaaaaaaa                                            ",
"                                            aaaa00qqqq**                                            ",
"                                            aaaa00qqqq**                                            ",
"                                          qqqq00qqqq**00**                                          ",
"                                          qqqq00qqqq**00**                                          ",
"                                          qq0000qq00000000                                          ",
"                                          qq0000qq00000000                                          ",
"                                          qq**00****0000**                                          ",
"                                          qq**00****0000**                                          ",
"                                          **uurruuhhqq**11                                          ",
"                                          **uurruuhhqq**11                                          ",
"                                          wwssssssss****<<                                          ",
"                                          wwssssssss****<<                                          ",
"                                          ww77rrrrwwww<<7777                                        ",
"                                          ww77rrrrwwww<<7777                                        ",
"                                          <<wwwwww<<<<77pp77ww                                      ",
"                                          <<wwwwww<<<<77pp77ww                                      ",
"                                          11<<<<<<777777pp<<77ww                                    ",
"                                          11<<<<<<777777pp<<77ww                                    ",
"                                        yygg77777777gg44ppyy<<<<ww                                  ",
"                                        yygg77777777gg44ppyy<<<<ww                                  ",
"                                      yy,,pppp>>>>22pppp22yyyy<<ww                                  ",
"                                      yy,,pppp>>>>22pppp22yyyy<<ww                                  ",
"                                    yy,,,,4422>>>>22444422,,yy77<<ww                                ",
"                                    yy,,,,4422>>>>22444422,,yy77<<ww                                ",
"                                  gggggg::4422,,,,22442222,,yygg<<77ww                              ",
"                                  gggggg::4422,,,,22442222,,yygg<<77ww                              ",
"                                  ppggpp  4422,,yy>>222222  yyppgg<<77                              ",
"                                  ppggpp  4422,,yy>>222222  yyppgg<<77                              ",
"                                  pppppp    >>yyyyyy>>2222  ::,,gg<<77                              ",
"                                  pppppp    >>yyyyyy>>2222  ::,,gg<<77                              ",
"                                  ::::::    ,,,,,,,,>>4444  ::,,ppgg7777                            ",
"                                  ::::::    ,,,,,,,,>>4444  ::,,ppgg7777                            ",
"                                          22%%%%%%%%%%%%22@@&&::::::<<77                            ",
"                                          22%%%%%%%%%%%%22@@&&::::::<<77                            ",
"                                          ----XXXXXXXXXX--  @@::eeee<<77                            ",
"                                          ----XXXXXXXXXX--  @@::eeee<<77                            ",
"                                        ----XXXoXXXoXoOO==-;  eeiiddtt                              ",
"                                        ----XXXXXXXOXOOO==--  eeiiddtt                              ",
"                                        --==ooX.    OOOOOO--    ddiidd                              ",
"                                        --==ooXX    +OOOOO--    ddiidd                              ",
"                                      $$22oooo        O+OO--98    ffiidd                            ",
"                                      $$22oooO        OOOO--98    ffiidd                            ",
"                                      222233            OO%%9955    ffiiff                          ",
"                                      222233            OO%%9955    ffiiff                          ",
"                                      2222                $$3366      ffiiff                        ",
"                                      2222                $$3366      ffiiff                        ",
"                                      22##                  $$66        ffiiff                      ",
"                                      22##                  $$66        ffiiff                      ",
"                                      22##                  2266          ddiiff                    ",
"                                      22##                  2266          ddiiff                    ",
"                                    22##                      2233          ffff                    ",
"                                    22##                      2233          ffff                    "
};
