/* XPM */
static char *adventurer_idle_2_021670943753[] = {
/* columns rows colors chars-per-pixel */
"100 75 39 1 ",
"  c None",
". c #2A3633",
"X c #2B3734",
"o c #2C3835",
"O c #2D3936",
"+ c #513E18",
"@ c #613F27",
"# c #5F4129",
"$ c #5E422A",
"% c #704431",
"& c #374340",
"* c #364441",
"= c #354542",
"- c #585551",
"; c #6B6970",
": c #902E2E",
"> c #AE3838",
", c #814C33",
"< c #814D34",
"1 c #905538",
"2 c #8F5F46",
"3 c #905E45",
"4 c #AC4141",
"5 c #8E6047",
"6 c #9F6450",
"7 c #AC775E",
"8 c #DA5663",
"9 c #DAA166",
"0 c #ECC758",
"q c #857F88",
"w c #33899A",
"e c #8691A0",
"r c #9CAEB8",
"t c #CA9680",
"y c #EEC49B",
"u c #A6AFEB",
"i c #C3C9F0",
"p c #CCDCFC",
"a c #D7ECFF",
/* pixels */
"                                                                                                    ",
"                                                                                                    ",
"                                                                                                    ",
"                                                                                                    ",
"                                                                                                    ",
"                                                                                                    ",
"                                                                                                    ",
"                                                                                                    ",
"                                                                                                    ",
"                                                                                                    ",
"                                                                                                    ",
"                                                                                                    ",
"                                                                                                    ",
"                                                                                                    ",
"                                                                                                    ",
"                                                                                                    ",
"                                                                                                    ",
"                                                                                                    ",
"                                                                                                    ",
"                                                tttttttt                                            ",
"                                                tttttttt                                            ",
"                                            tttt667777%%                                            ",
"                                            tttt667777%%                                            ",
"                                          7777667777%%66%%                                          ",
"                                          7777667777%%66%%                                          ",
"                                          7766667766666666                                          ",
"                                          7766667766666666                                          ",
"                                          77%%66%%%%6666%%                                          ",
"                                          77%%66%%%%6666%%                                          ",
"                                          %%ww99wwaa77%%                                            ",
"                                          %%ww99wwaa77%%                                            ",
"                                          88yyyyyyyy%%%%>>                                          ",
"                                          88yyyyyyyy%%%%>>                                          ",
"                                          884499998888::::44                                        ",
"                                          884499998888::::44                                        ",
"                                          ::888888::::::rr::44                                      ",
"                                          ::888888::::::rr::44                                      ",
"                                          >>::::::444444rrqq::88                                    ",
"                                          >>::::::444444rrqq::88                                    ",
"                                      qqqqpp44444444pp11rrqqqq88                                    ",
"                                      qqqqpp44444444pp11rrqqqq88                                    ",
"                                    qq;;;;rrrr----,,rrrr,,qqqqqq88                                  ",
"                                    qq;;;;rrrr----,,rrrr,,qqqqqq88                                  ",
"                                  qq;;;;--11,,----,,1111,,--;;qq88                                  ",
"                                  qq;;;;--11,,----,,1111,,--;;qq88                                  ",
"                                pppppp--  11,,;;;;,,1111,,::--qqpp88                                ",
"                                pppppp--  11,,;;;;,,1111,,::--qqpp88                                ",
"                                rrpprr    11,,qqqq--,,,,,,::::;;rrpp                                ",
"                                rrpprr    11,,qqqq--,,,,,,::::;;rrpp                                ",
"                                rrrrrr    11;;qqqq;;--,,,,  ::--;;pp88                              ",
"                                rrrrrr    11;;qqqq;;--,,,,  ::--;;pp88                              ",
"                                ------      qqqqqqqq;;----  ++--;;rrpp                              ",
"                                ------      qqqqqqqq;;----  ++--;;rrpp                              ",
"                                            ;;;;;;;;--1111    ++------                              ",
"                                            ;;;;;;;;--1111    ++------                              ",
"                                          11$$$$$$$$$$$$,,    ::--eeuu00                            ",
"                                          11$$$$$$$$$$$$,,    ::--eeuu00                            ",
"                                        ==**..oo........&&**  ::44uueeuu                            ",
"                                        ===*..Xo........&&**  ::44uueeuu                            ",
"                                        ====OOOOXXXXXXXXXX*=    ::::iieeuu                          ",
"                                        ====OOOOXXXXXXXXXX**    ::::iieeuu                          ",
"                                        oOooOO        ..XX**==        iieeii                        ",
"                                        ooooOO        ..XX**==        iieeii                        ",
"                                      $$,,XX            ....55          iieeii                      ",
"                                      $$,,XX            ...X55          iieeii                      ",
"                                      ,,,,<<              $$<<55          iieeii                    ",
"                                      ,,,,<<              $$<<35          iieeii                    ",
"                                      ,,,,                $@,<33            uueeii                  ",
"                                      ,,,,                $$<<33            uueeii                  ",
"                                      ,,@@                  $@33              iiii                  ",
"                                      ,,@@                  $$33              iiii                  ",
"                                      ,,@@                  ,,33                                    ",
"                                      ,,@@                  ,,33                                    ",
"                                    ,,@@                      ,,<<                                  ",
"                                    ,,@@                      ,,<<                                  "
};
