/* XPM */
static char *kindpng_1278454_1_100x1001671283584[] = {
/* columns rows colors chars-per-pixel */
"100 100 89 1 ",
"  c None",
". c #000000",
"X c #0C0B04",
"o c #191603",
"O c #1E1B04",
"+ c #1E1C0F",
"@ c #332C01",
"# c #272513",
"$ c #423A00",
"% c #4B4100",
"& c #4F460A",
"* c #504600",
"= c #554A00",
"- c #5A4E01",
"; c #52490B",
": c #6A5D0E",
"> c #736400",
", c #75670F",
"< c #7A6C10",
"1 c #454022",
"2 c #56512B",
"3 c #8C7A0B",
"4 c #857511",
"5 c #8C7C12",
"6 c #827A41",
"7 c #968200",
"8 c #988400",
"9 c #9B8914",
"0 c #B29D17",
"q c #B5A017",
"w c #B6A119",
"e c #C9AE00",
"r c #C7AD09",
"t c #CEB300",
"y c #D3B700",
"u c #D4B800",
"i c #CFB71B",
"p c #D0B71B",
"a c #D3BA1B",
"s c #DEC109",
"d c #EDCD01",
"f c #E2C409",
"g c #F0CF00",
"h c #F4D404",
"j c #F8D600",
"k c #FCDA00",
"l c #F4D40A",
"z c #FADA0A",
"x c #E7CC1E",
"c c #E8CC1E",
"v c #ECD01F",
"b c #F6D710",
"n c #FBDC14",
"m c #F2D61F",
"M c #FCDE1D",
"N c #FFE200",
"B c #FFE00F",
"V c #FFE014",
"C c #FFE11F",
"Z c #F7DA20",
"A c #FBDD21",
"S c #F3DA37",
"D c #FFE121",
"F c #FFEA22",
"G c #FFE32E",
"H c #FEE333",
"J c #FEE43D",
"K c #908748",
"L c #A79C53",
"P c #AFA457",
"I c #B3A759",
"U c #CCBC57",
"Y c #FEE443",
"T c #FFE74C",
"R c #FDE756",
"E c #FDE758",
"W c #FFE95A",
"Q c #CFC268",
"! c #D2C366",
"~ c #D2C469",
"^ c #D7C86B",
"/ c #DACC6D",
"( c #E9D973",
") c #FFEB66",
"_ c #FEEB6A",
"` c #FFEC71",
"' c #FFEE7F",
"] c #FFEE81",
"[ c #FFF382",
/* pixels */
"                                                                                                    ",
"                                    .............................                                   ",
"                                    .............................                                   ",
"                                    .............................                                   ",
"                                    .............................                                   ",
"                                    .............................                                   ",
"                        ...........1KKKKKKKKKKKKKKKKKKKKKKKKKKKK6X..........                        ",
"                        ...........2[[[[[[[[[[[[[[[[[[[[[[[[[[[[/X...........                       ",
"                        ...........2''''']''[''']'''['''[['''''[/X...........                       ",
"                        ...........2]'']'''''''''''''''']]'']''[/X...........                       ",
"                        ...........2''''']]'''['''['''''''']''''^X...........                       ",
"                        ...........2'''''''''''']'''''['']'''''[/X...........                       ",
"                  .....+PIIIPPIIIIIURRRRRTJJJJJJJJJJJJJJJJJJJJJJSw00w00w00wq<.....                  ",
"                  .....+([[[['[[[[[_YJYJJGCCCCCCCCCDCCDCCCCCCCDDDDFFDFDDDFDF9.....                  ",
"                  .....+(]['''''[]]_YSYYYGCDDDDDDDDDDDDDDDDDDDDDDDDDDDDDDDDF9.....                  ",
"                  .....+(['''''''''_JYYYYSDDDDDDDDDDDDDDDDDDDDDDDDDDDDDDDDDF9.....                  ",
"                  .....+([]''''''']_SYSYYHCDDDDDDDDDDDDDDDDDDDDDDDDDDDDDDDDD9.....                  ",
"                  XXXXX#/]'''''''''_YYYYJHMDADMADCCDDDDADDDADACDADDDDDDDDDDD9XXXXX                  ",
"            .....XP~!QQ~RTTTYYHHGHHDlldldldldldllddlddldlddldddllMDDDDDDDDDDvippip:.....            ",
"            .....X~[][['YYSYYJDDCCDbdfdddfddddddddddddddddddddddhADDDDDDDDDDDDFDCF,.....            ",
"            .....XQ'''''YYSYYJDDDDDbddddddddddddddddddddddddddddlMDDDDDDDDDDDDDDDF,.....            ",
"            .....X!['''`YYYYYJDDDDDndddddddddddddddddddddddddddddDDDDDDDDDDDDDDDDD,.....            ",
"            .....X~[']]'YYJYJJDDDDDndddddddddddddddddddddddddddddDDDDDDDDDDDDDDDDF,.....            ",
"            +++++#!`'`'_YJJJJSAAMCMmldddlddddlddddddddldddddldddlMMMMMMDDDDDDDDDDD4oOOOO            ",
"      ......L(((((TYYYYYGDGDDMdddddlAMMDDCCMMCMMAMMMCMCDDDMAMCMMnlddddlADDDDDDDDDDmxcccc&.....      ",
"      ......I[[[]'TYYYYSADDDDMdddddlDDDDDDDDDDDDDDDDDDDDDDDDDDDDAdddddlDDDDDDDDDDDDDDDDD;.....      ",
"      ......I[]']'TSYYYJDDDDDMdddddlDDDDDDDDDDDDDDDDDDDDDDDDDDDDMdddddlDADDDDDDDDDDDDDDD;.....      ",
"      ......I[''''TYYSYJDDDDAMdddddlDDDDDDDDDDDDDDDDDDDDDDDDDDDDMdddddlADDDDDDDDDDDDDDDD;.....      ",
"      ......I[''''TYYYYJGADDDMdddddlDDDDDCCDDDCCDDDDDDCDCCDDDDDDMdddddlDDDDDDDDDDDDDDDDD;.....      ",
"      ......I[]'''YJJSJHMnMMMbdldlllDDDDDGHHHHHHHHJHHHHHHJHDDDDDAlhdldlMnMMMCDDDDDDDDDDD;.....      ",
"      ......I[]''`HDDDDMddddddDDDDCDDADDCT''''''''''''''''`GDDDDDDDDAAndddddlDDDDDDDDDDD;.....      ",
"      ......I[''''HADDDMdddddlDDDDDDDDDDCT[''''''''''''''''GDDDDDDDDDDbdddddzDDDDDDDDDDD;.....      ",
"      ......P[''''HDDDDMdddddlDDADDDDDDDCT]'''''''''''''''`GDDDDDDDDDDndddddlDDDDDDDDDDD&.....      ",
"      ......I[']''HDDDDDdddddhCDDDDDDDDDCR]'''']']]'']]'']'GDDDDDDDDDDndddddlDDDDDDDDDDD;.....      ",
"      ......P[]]''HADDDAddddddCDDDDDCCCCMT[]]]]]]]]]]]]']]'GDDDDCDDDDDMddddflDCCDCCDDDDD&....X      ",
"      122222U___))AbMnbMbllllbCDDDDGYYJYYTEEEREEEEEEERRREERMnMnnMCDDDDMllllhAJYYYYGDDDDD9;;;;;      ",
" .....K[[[]]RJYYYYldddddZDDDDDDDDDCY'']]]YlzzjzzzzzzzzzzzzzhlhzhzMDDDDDDADDCY]]]'[TCDDDDDDDDDA#.....",
" .....K[[]''RJYSJSldddddMADDDDDDDCCY'''']YzzzzzzzzzzzzzzzzzjhhhhlCDDDDDDDDDCY]'''[TCDDDDDDDDDG@.....",
" .....K[''''RYJYYYldddddMDDDDDDDDDCJ]''']YzzzzzzzzzzzzjzzzzhhhhhzMDDDDDDDDDCT]''']TCDDDDDDDDDA@.....",
" .....K['']'ESYJJSlfdddgMDDDDADDDDCY]']''YzzzzzzzzzzzzzzzzzzhhhzlCDDDDDDDDDCY]']']TCDDDDDDDDDZ@.....",
" .....K[']''EJYYYJddddddCDDDDDDDDDCY]''']TzzzzzzzzhzzzzzzzzhhhhzhCDDDDDDDDDDY]']']TCDDDDDDDDDZ@.....",
" .....K[''''THHHGSldddddMDDDDDDDDDCJ]'']]YzzzzzzzzzzzzzzzzzzhhhhlCDDDDDDDDDCY]'']]TCDDDDVnBnnl@.....",
" .....K[]'']JCCCCCddddddCDDDDDDDDDCY'''''YzzzzzzzzzzzzzzzzzhhhhhlCDDDDDDDDDCT''']]TCDDDDzkkkkh@.....",
" .....K[''''JCCDDDlddddlADDDDDDDDCCY]]'']YzzzzzzzzzzzzzzzzzhhjhhzMDDDDDDDDDCY[']']TCDDDDzkkkkh@.....",
" .....K['']'JCDDDAddddddMDDDDDDDDDCY'''']YzzzzzzzzzzzhzzzzBhzhhhlCDDDDDDDDDCT'''']TCDDDDzkkkkh@.....",
" .....K[''''JDDDDAldddddMDDDDDDDDDCY'''[]YzzzzzlzzzzzzzzzzzhhhhzzMDDDDDDDDDCY]'']]TCDDDDzkkkkh@.....",
" .....K[]'']JDDDDDldddddMDDDDDDDDDCJ[''']YlzzzzzzzzzzzzzzzzhhzhhlCDDDDDDDDDCY[''']TCDDDDzkkkkh@.....",
" .....K[''''JCDDDDddddddMDDDDDDDDDCY'''']TzzzzzzzzzzzzzzzzBhhhhhzMDDDDDDDDDCY]]'']TDDDDDBkkkkh@.....",
" .....K[[[''JCDDDAdddddlMDADADDDDDCY]']''TzzhzzzzzzzhzzzzzzhhhhzzMDDDDDDDDDCT]''']TCDDDDzkkkkh@.....",
" .....K[]]]'JDDDDDldddddMDDDDDDDDCCY]'''[YjzzzzzhBhzzzzzzzBhhhhhlCDDDDDDDDDCY]'''[TCDDDDzjkkkh@.....",
" .....K[']''JCDDDCddddddMDDDDDDDDDCJ]''']YzzzzzzzhBzzzzzzzzhhhhhzMDDDDDDDDDCY[']']TDDDDDzkkkkh@.....",
" .....K[''''JCDDDAldddddADDDDDDDDDCY]']']TzzzzzzzzzzBhzzzzzhhzhhlCCDDDDDDDDCY]'']]TDDDDDzkkkkh@.....",
" .....K[['''JCDDDDddddddCDDDDDDDDDCY]''']YlzzzzzzzzzzzhBzzzhhhhhzMDDDDDDDDDCY]''']TDDDDDzkkkkh@.....",
" .....K[''''JDDDDDldddddMDDDDDDDDDCJ]''']YzzzzzzzzzzzzzzzzzhhjzhlCDDDDDDDDDCY]']']TCDDDDzkkkkh@.....",
" .....K[''['JCDDDAdddddlCDDDDDDDDDCY]']]]YzzzzzzzzzzzzhzzzNlhzhhzMDDDDDADDDCY]''']TCDDDDzkkkkh@.....",
" .....K[''''JCDDDAldddddMDDDDDDDDCCY]'']]YzzzzzzzzzzzzBzzzBhhhhhlCDDDDDDDDDCT'''']TCDDDDzkkkkh@.....",
" .....K[''''JCDDDDddddddMDDDDDDDDDCY'''']YbzzzlzzzzzhzzzzzzhhhhhlCCDDDDDDDDCY]'']]TCDDDDBkkkkh@.....",
" .....K[]']'JDDDDDldddddCDDDDDDDDDCY'''']YzzzzzzzzzzBzzzzzBlhhhhzMDDDDDDDDDCY]']']TCDDDDzkkkkh@.....",
" .....K['']'JCDDDAldddddMDDDDDDDDDCJ[''[]YzzzzzzzzzzzzzzzzzhzhzhlCDDDDDDDDDDT'''']TCDDDDzkkkkh@.....",
" .....K[''''JCDDDDddddddMDDDDDDDDDCY'''']YzzzzzzzzzhzzzzzzzhhhhhzMDDDDDDDDDCY['']]TCDDDDzkkkkh@.....",
" .....K[''''JCDDDMhdddddCDDDDDDDDDCY]''']YbzzzzzzzzzzzzzzzBhhhhjlCDDDDDDDDDCT'''']TCDDDDzkkkkh@.....",
" .....K[['''JDDDDDdddddlMDDDDDDDDDCJ]''']YzzzhzzzzzzzzzzzzzhhhhhzMDDDDDDDDDCY'''][TCDDDDzkkkkh@.....",
" .....K[''''JCDDDCddddddMDDDDCDDDDCY]''][YzzzzhBzzzzbzzNzzzhhhhzzCDDDDDDDDDCT'''']TCDDDDzkkkkh@.....",
" .....K['[[[JCDDAAlddddgMDDDDDDDDDCY]]'][YzzzzzzzzzzzzzhzzBhzhhhlMDDDDDDCDCCY]]]]]TCDDDDBkkkkh@.....",
" .....6///^/SDDDDDldhddlnMMMMMADDDDJ``_``JzzzzzzzzzzzzzzzzzzhzlzzADDDDDHHHGGY`_```YCCCCCfyuuut@.....",
"      XXXXXXwDMAAMADCMDAlddddlDDDDDDDGGDGnhhhhhhhhhhhhhhhhhCDMDMADDDDCH'`'''EDGDDGnkkkkk-XXXoX      ",
"      ......0DMMMADDDDDCddddddDDDDDDDDDDDnhhhzhzhhhhhjhhhhhMDDDDDDDDDCJ'']]]WDDDDDzkkkkk%.....      ",
"      ......0DAAAMDDDDDMdddddhCDDDDDDDDDDnhhhhhhhhhzzhhhhhzMDDDDDDDDDDH''']]WDDDDDBkkkkk*.....      ",
"      ......0DAAMAADDDDMddddddDDADDDDDDDDnhhzhhhhhhhhhhhhlhCDDDDDDDCDCJ'']']EDDDDDzkkkkk*.....      ",
"      ......0DMAAMDDDDCCdddddlDDDDDDDDDDDbhhhhhhhzhhhhhjhhzMDDDDDCCCCCH'][][EDDDDDnkkkkk*.....      ",
"      ......0CADADDDDDDMlllldlMMnMbMDDDDDnzbzzlzzzbzlzzzlzzCDDDDDJHJJJY_)))_TDDDDDnkkkkk*.....      ",
"      ......qDDDDDDDDDDDAADDAMdddddlDDDDDDDDDDDDDDDDDDDDDDDDDDDCG''''[)DDDDDDDDDDDzkkkkk*.....      ",
"      ......0FDDDDDDDDDDDDDDDMdddddlADDDDDDDDDDDDDDDDDDDDDDDDDDDG''''])DDDDDDDDDDDzkkkkk*.....      ",
"      ......0FDDDDDDDDDDDDDDDMdddddlDDDDDDDDDDDDDDDDDDDDDDDDDDDDG''']])DDDDDDDDDDDVkkkkk*.....      ",
"      ......wDDDDDDDDDDDDDDDMMdddddlDDDDDDDDDDDDDDDDDDDDDDDDDDDDH`'''])DDDDDDDDDDDnkkkkk*.....      ",
"      ......wFFFFDDDDDDDDDDDAMdddddlCCCCCCCCCCCDCCCDCCDDCCCCCCCDG'''][_DDDDDDDDDDDzNNkNk*.....      ",
"       .....<99999cDDDADDDDDAMlllllATYYYYYYTYYTYYTYYTYYYYYYYTYYYTEEEWWTDDDDDCnnnVVr88888$.....      ",
"            .....XiDDDDDDDDDDDDDDCDY]][][]]']]']'']]][]]][]]'[]]`DCCDDDDDDDDnkkkkk>.....            ",
"            .....XpDDDDDDDDDDDDDDDCY]']'']''''''']'''''']'''''']`GDDDDDDDDDDnkkkkN>.....            ",
"            .....XpFDDDDDDDDDDDDDCCY]''''''''['''''''']']'']']']`DDDDDDDDDDDVkkkkk>.....            ",
"            .....XiCDDDDDDDDDDDDDDCJ[']'']''''']']''']''']''']]]`DDDDDDDDDDDVkkkkN>.....            ",
"            .....XaDDFDFDDDDDDDDDDCY]]]]]]]]]]]]]]]]]]]]]]]]]]]]`GDDDDDDDDDDVkNkkN>.....            ",
"                  :,,,,4ZDDDDDDDDDCHTTTTTTTTTTTTTTTTTTTTTTTTTTTTYVVznzzVnzVBr>>>>>%                 ",
"                  .....oxDDDDDDDDDDDCCCCCCCDCCCCCCCDCCCCCCCCCDCCCkkkkkkkkkkk7.....                  ",
"                  .....OxDDDDDDDDDDDDDDDDDDDDDDDDDDDDDDDDDDDDDDDCkkkkkkkkkkN8.....                  ",
"                  .....OxDDDDDDDDDDDDDDDDDDDDDDDDDDDDDDDDDDDDDDDCkkkkkkkkkkk8.....                  ",
"                  .....OxDDDDDDDDDDDDDDDDDDDDDDDDDDDDDDDDDDDDDDAMkkkkkkkkkkN8.....                  ",
"                  .....OvDDDDDDDDDDDDDDDDDDDDDDDDDDDDDDDDDDDDDDMCkkkkkkkkkkk8.....                  ",
"                        &&;;;;;;;;&3zzzzzzzzzzzzzzzzzzBzzzzzzzzzs-**********$                       ",
"                        ...........*kkkkkkkkkkkkkkkkkkkkjkkjhhhjtX...........                       ",
"                        ...........=kkkkkkkkkkkkkkkkkkkkkkkjhhhjtX...........                       ",
"                        ...........=NkkkkkkkkkkkkkkkkkkkkkkhhhjjtX...........                       ",
"                        ...........=kkkkkkkkkkkkkkkkkkkkkkkhhhhjyX...........                       ",
"                        ...........=jhhhhhhhhhhhhhhhhhhhhhhdddddeX...........                       ",
"                                    @@@@@@@@@@@@@@@@@@@@@@@@@@@@@                                   ",
"                                    .............................                                   ",
"                                    .............................                                   ",
"                                    .............................                                   ",
"                                    .............................                                   ",
"                                    .............................                                   "
};
