/* XPM */
static char *kindpng_1278454_4_100x1001671179738[] = {
/* columns rows colors chars-per-pixel */
"100 100 40 1 ",
"  c None",
". c black",
"X c #090800",
"o c #1A1700",
"O c #1C1904",
"+ c #2C2600",
"@ c #2E2800",
"# c #2F2902",
"$ c #302900",
"% c #312A00",
"& c #312B06",
"* c #312C06",
"= c #322C07",
"- c #50470A",
"; c #7F6E00",
": c #837100",
"> c #837200",
", c #877607",
"< c #8B7B12",
"1 c #8D7D12",
"2 c #8D7D13",
"3 c #907F13",
"4 c #938213",
"5 c #DDBF00",
"6 c #E4C500",
"7 c #E4C600",
"8 c #E5C600",
"9 c #E6C700",
"0 c #EACB00",
"q c #EDCD00",
"w c #EBCD0C",
"e c #F2D100",
"r c #F4D40C",
"t c #F4D50C",
"y c #F9D90D",
"u c #F6D920",
"i c #FBDD20",
"p c #FFE121",
"a c #FFE622",
"s c #FFEA22",
/* pixels */
"                                                                                                    ",
"                                      .......................                                       ",
"                                      .......................                                       ",
"                                      .......................                                       ",
"                                      .......................                                       ",
"                                      .......................                                       ",
"                                      .....O<3333333334-.....                                       ",
"                                      .....=iaaaaaaaaas3.....                                       ",
"                                      .....&upppppppppa1.....                                       ",
"                                      .....&upppppppppa1.....                                       ",
"                                      .....&upppppppppa1.....                                       ",
"                                      .....&upppppppppa1.....                                       ",
"                                      .....&upppppppppa1.....                                       ",
"                                      .....&upppppppppa1.....                                       ",
"                                      .....&upppppppppa1.....                                       ",
"                                      .....&upppppppppa1.....                                       ",
"                                      .....&upppppppppa1.....                                       ",
"                                      .....&upppppppppa1.....                                       ",
"                                      .....&upppppppppa1.....                                       ",
"                                      .....&upppppppppa1.....                                       ",
"                                      .....&upppppppppa1.....                                       ",
"                                      .....&upppppppppa1.....                                       ",
"                                      .....&upppppppppa1.....                                       ",
"                                      .....&upppppppppa1.....                                       ",
"                                      .....&upppppppppa1.....                                       ",
"                                      .....&upppppppppa1.....                                       ",
"                                      .....&upppppppppa1.....                                       ",
"                                      .....&upppppppppa1.....                                       ",
"                                      .....&upppppppppa1.....                                       ",
"                                      .....&upppppppppa1.....                                       ",
"                                      .....&upppppppppa1.....                                       ",
"                                      .....&upppppppppa1.....                                       ",
"                                      .....&upppppppppa1.....                                       ",
"                                      .....&upppppppppa1.....                                       ",
"                                      .....&upppppppppa1.....                                       ",
"                                      .....&upppppppppa1.....                                       ",
"                                      .....&upppppppppa1.....                                       ",
"                                      .....&upppppppppa1.....                                       ",
"                                      .....&upppppppppa1.....                                       ",
"                                      .....&upppppppppa1.....                                       ",
"                                      .....&upppppppppa1.....                                       ",
"                                      .....&upppppppppa1.....                                       ",
"                                      .....&upppppppppa1.....                                       ",
"                                      .....&upppppppppa1.....                                       ",
"                                      .....&upppppppppa1.....                                       ",
"                                      .....&upppppppppa1.....                                       ",
"                                      .....=upppppppppa1.....                                       ",
"                                      .....#wttrrrrrrty,.....                                       ",
"                                      .....#7qqqqqqqqqe:.....                                       ",
"                                      .....+7qqqqqqqqqe>.....                                       ",
"                                      .....#7qqqqqqqqqe>.....                                       ",
"                                      .....#7qqqqqqqqqe>.....                                       ",
"                                      .....#7qqqqqqqqqe:.....                                       ",
"                                      .....+7qqqqqqqqqe:.....                                       ",
"                                      .....#7qqqqqqqqqe:.....                                       ",
"                                      .....#7qqqqqqqqqe:.....                                       ",
"                                      .....+8qqqqqqqqqe>.....                                       ",
"                                      .....#8qqqqqqqqqe>.....                                       ",
"                                      .....#7qqqqqqqqqe>.....                                       ",
"                                      .....+7qqqqqqqqqe>.....                                       ",
"                                      .....#7qqqqqqqqqe>.....                                       ",
"                                      .....#7qqqqqqqqqe>.....                                       ",
"                                      .....#7qqqqqqqqqe>.....                                       ",
"                                      .....#7qqqqqqqqqe>.....                                       ",
"                                      .....#7qqqqqqqqqe:.....                                       ",
"                                      .....#7qqqqqqqqqe:.....                                       ",
"                                      .....#7qqqqqqqqqe:.....                                       ",
"                                      .....+7qqqqqqqqqe:.....                                       ",
"                                      .....#8qqqqqqqqqe>.....                                       ",
"                                      .....+7qqqqqqqqqe>.....                                       ",
"                                      .....#7qqqqqqqqqe>.....                                       ",
"                                      .....#7qqqqqqqqqe>.....                                       ",
"                                      .....+7qqqqqqqqqe>.....                                       ",
"                                      .....#7qqqqqqqqqe>.....                                       ",
"                                      .....#7qqqqqqqqqe>.....                                       ",
"                                      .....+7qqqqqqqqqe>.....                                       ",
"                                      .....#7qqqqqqqqqe>.....                                       ",
"                                      .....#7qqqqqqqqqe>.....                                       ",
"                                      .....#7qqqqqqqqqe>.....                                       ",
"                                      .....+7qqqqqqqqqe>.....                                       ",
"                                      .....#7qqqqqqqqqe>.....                                       ",
"                                      .....+7qqqqqqqqqe>.....                                       ",
"                                      .....#7qqqqqqqqqe>.....                                       ",
"                                      .....#7qqqqqqqqqe>.....                                       ",
"                                      .....#7qqqqqqqqqe>.....                                       ",
"                                      .....#7qqqqqqqqqe:.....                                       ",
"                                      .....+7qqqqqqqqqe:.....                                       ",
"                                      .....#7qqqqqqqqqe:.....                                       ",
"                                      .....#8qqqqqqqqqe>.....                                       ",
"                                      .....+8qqqqqqqqqe>.....                                       ",
"                                      .....#7qqqqqqqqqe>.....                                       ",
"                                      .....#7qqqqqqqqqe>.....                                       ",
"                                      .....#8qqqqqqqqqe>.....                                       ",
"                                      .....+58888888770:.....                                       ",
"                                      .....X##$$$$$$$$$o.....                                       ",
"                                      .......................                                       ",
"                                      .......................                                       ",
"                                      .......................                                       ",
"                                      .......................                                       ",
"                                      .......................                                       "
};
