/* XPM */
static char *adventurer_fall_001671121685[] = {
/* columns rows colors chars-per-pixel */
"100 74 24 1 ",
"  c None",
". c #293532",
"X c #613F27",
"o c #704431",
"O c #374340",
"+ c #585551",
"@ c #545358",
"# c #6B6970",
"$ c #902E2E",
"% c #814C33",
"& c #905538",
"* c #905E45",
"= c #AC4141",
"- c #9F6450",
"; c #AC775E",
": c #DA5663",
"> c #DAA166",
", c #857F88",
"< c #33899A",
"1 c #9CAEB8",
"2 c #CA9680",
"3 c #EEC49B",
"4 c #CCDCFC",
"5 c #D7ECFF",
/* pixels */
"                                                                                                    ",
"                                                                                                    ",
"                                                          ==                                        ",
"                                                          ==                                        ",
"                                                        ::==                                        ",
"                                                        ::==                                        ",
"                                                      ::==    ==                                    ",
"                                                      ::==    ==                                    ",
"                                                      ::==  ==                                      ",
"                                                      ::==  ==                                      ",
"                                                      ::====$$                                      ",
"                                                      ::====$$                                      ",
"                                                ,,##++::====$$                                      ",
"                                                ,,##++::====$$                                      ",
"                                            22221111++$$====$$                                      ",
"                                            22221111++$$====$$                                      ",
"                                    ,,##2222--;;4411$$====$$                                        ",
"                                    ,,##2222--;;4411$$====$$                                        ",
"                                    44;;;;--;;;;4411oo====$$                                        ",
"                                    44;;;;--;;;;4411oo====$$                                        ",
"                                  4411;;----;;--444411==$$                                          ",
"                                  4411;;----;;--444411==$$                                          ",
"                                  4411;;oo--oooo444411$$$$                                          ",
"                                  4411;;oo--oooo444411$$$$                                          ",
"                                444411oo<<>><<55,,##++$$                                            ",
"                                444411oo<<>><<55,,##++$$                                            ",
"                                4411++  33333333,,,,++                                              ",
"                                4411++  33333333,,,,++                                              ",
"                                ,,####++==>>>>::##,,++                                              ",
"                                ,,####++==>>>>::##,,++                                              ",
"                                  ,,##::::::$$$$##,,++                                              ",
"                                  ,,##::::::$$$$##,,++                                              ",
"                                    ,,$$$$$$$$==&&##++                                              ",
"                                    ,,$$$$$$$$==&&##++                                              ",
"                                      ,,====@@&&1111%%                                              ",
"                                      ,,====@@&&1111%%                                              ",
"                                      11%%@@%%%%%%%%%%                                              ",
"                                      11%%@@%%%%%%%%%%                                              ",
"                                        %%@@@@%%&&&&%%                                              ",
"                                        %%@@@@%%&&&&%%                                              ",
"                                        %%##,,%%&&&&                                                ",
"                                        %%##,,%%&&&&                                                ",
"                                        @@,,,,&&%%&&                                                ",
"                                        @@,,,,&&%%&&                                                ",
"                                        %%%%%%%%%%%%                                                ",
"                                        %%%%%%%%%%%%                                                ",
"                                      ........OOOOOO                                                ",
"                                      ........OOOOOO                                                ",
"                                    OO........OOOOOO                                                ",
"                                    OO........OOOOOO                                                ",
"                                    OO........OOOOOO                                                ",
"                                    OO........OOOOOO                                                ",
"                                  ........    ..OOOO                                                ",
"                                  ........    ..OOOO                                                ",
"                                  %%....      XX****                                                ",
"                                  %%....      XX****                                                ",
"                                  %%XX          XX%%                                                ",
"                                  %%XX          XX%%                                                ",
"                                %%XX              XX                                                ",
"                                %%XX              XX                                                ",
"                                %%XX                                                                ",
"                                %%XX                                                                ",
"                              XXXX                                                                  ",
"                              XXXX                                                                  ",
"                                                                                                    ",
"                                                                                                    ",
"                                                                                                    ",
"                                                                                                    ",
"                                                                                                    ",
"                                                                                                    ",
"                                                                                                    ",
"                                                                                                    ",
"                                                                                                    ",
"                                                                                                    "
};
