/* XPM */
static char *adventurer_run_051670853478[] = {
/* columns rows colors chars-per-pixel */
"100 75 23 1 ",
"  c None",
". c #293532",
"X c #613F27",
"o c #704431",
"O c #374340",
"+ c #585551",
"@ c #545358",
"# c #6B6970",
"$ c #902E2E",
"% c #814C33",
"& c #905538",
"* c #AC4141",
"= c #9F6450",
"- c #AC775E",
"; c #DA5663",
": c #DAA166",
"> c #857F88",
", c #33899A",
"< c #9CAEB8",
"1 c #CA9680",
"2 c #EEC49B",
"3 c #CCDCFC",
"4 c #D7ECFF",
/* pixels */
"                                                                                                    ",
"                                                                                                    ",
"                                                                                                    ",
"                                                                                                    ",
"                                                                                                    ",
"                                                                                                    ",
"                                                                                                    ",
"                                                                                                    ",
"                                                                                                    ",
"                                                                                                    ",
"                                                                                                    ",
"                                                                                                    ",
"                                                                                                    ",
"                                                                                                    ",
"                                                                                                    ",
"                                                                                                    ",
"                                                                                                    ",
"                                                                                                    ",
"                                                                                                    ",
"                                                                                                    ",
"                                                                                                    ",
"                                                                                                    ",
"                                                                                                    ",
"                                                                                                    ",
"                                                                                                    ",
"                                                                                                    ",
"                                  11111111                                                          ",
"                                  11111111                                                          ",
"                              1111==----oo                                                          ",
"                              1111==----oo                                                          ",
"                            ----==----oo==oo                                                        ",
"                            ----==----oo==oo                                                        ",
"                            --====--========                                                        ",
"                            --====--========                                                        ",
"                            --oo==oooo====oo                                                        ",
"                            --oo==oooo====oo                                                        ",
"                            oo,,::,,44--oo$$%%**          ;;;;;;****                                ",
"                            oo,,::,,44--oo$$%%**          ;;;;;;****                                ",
"                              22222222oooo**$$****;;;;;;;;$$$$$$**                                  ",
"                              22222222oooo**$$****;;;;;;;;$$$$$$**                                  ",
"                              ;;::::$$$$**>>####$$**$$;;******$$$$                                  ",
"                              ;;::::$$$$**>>####$$**$$;;******$$$$                                  ",
"                              $$$$$$$$**&&>>>>##  $$****$$$$**$$$$                                  ",
"                              $$$$$$$$**&&>>>>##  $$****$$$$**$$$$                                  ",
"                                ****@@&&<<++>>##    $$$$$$  $$                                      ",
"                                ****@@&&<<++>>##    $$$$$$  $$                                      ",
"                                  %%@@%%%%++####                                                    ",
"                                  %%@@%%%%++####                                                    ",
"                                  >>3333333333##                                                    ",
"                                  >>3333333333##                                                    ",
"                                  ##3333333333++                                                    ",
"                                  ##3333333333++                                                    ",
"                                  ++<<<<<<<<<<++                                                    ",
"                                  ++<<<<<<<<<<++                                                    ",
"                                    ######@@@@@@                                                    ",
"                                    ######@@@@@@                                                    ",
"                                    %%%%&&&&&&%%                                                    ",
"                                    %%%%&&&&&&%%                                                    ",
"                                    OO..OOOO....                                                    ",
"                                    OO..OOOO....                                                    ",
"                                    OO..OOOO....                                                    ",
"                                    OO..OOOO....                                                    ",
"                                    OO..OO..XX%%                                                    ",
"                                    OO..OO..XX%%                                                    ",
"                                    OO..OO..XX%%&&&&                                                ",
"                                    OO..OO..XX%%&&&&                                                ",
"                                      &&..XXXXXXXX&&                                                ",
"                                      &&..XXXXXXXX&&                                                ",
"                                      &&%%..      XX                                                ",
"                                      &&%%..      XX                                                ",
"                                      &&%%                                                          ",
"                                      &&%%                                                          ",
"                                      &&XX                                                          ",
"                                      &&XX                                                          ",
"                                    %%XXXX                                                          ",
"                                    %%XXXX                                                          "
};
