/* XPM */
static char *adventurer_run_031670853478[] = {
/* columns rows colors chars-per-pixel */
"100 75 24 1 ",
"  c None",
". c #293532",
"X c #613F27",
"o c #704431",
"O c #374340",
"+ c #585551",
"@ c #545358",
"# c #6B6970",
"$ c #902E2E",
"% c #814C33",
"& c #905538",
"* c #905E45",
"= c #AC4141",
"- c #9F6450",
"; c #AC775E",
": c #DA5663",
"> c #DAA166",
", c #857F88",
"< c #33899A",
"1 c #9CAEB8",
"2 c #CA9680",
"3 c #EEC49B",
"4 c #CCDCFC",
"5 c #D7ECFF",
/* pixels */
"                                                                                                    ",
"                                                                                                    ",
"                                                                                                    ",
"                                                                                                    ",
"                                                                                                    ",
"                                                                                                    ",
"                                                                                                    ",
"                                                                                                    ",
"                                                                                                    ",
"                                                                                                    ",
"                                                                                                    ",
"                                                                                                    ",
"                                                                                                    ",
"                                                                                                    ",
"                                                                                                    ",
"                                                                                                    ",
"                                                                                                    ",
"                                                                                                    ",
"                                                                                                    ",
"                                                                                                    ",
"                                    22222222                                                        ",
"                                    22222222                                                        ",
"                                2222--;;;;oo                                                        ",
"                                2222--;;;;oo                                                        ",
"                              ;;;;--;;;;oo--oo                                                      ",
"                              ;;;;--;;;;oo--oo                                                      ",
"                              ;;----;;--------                                                      ",
"                              ;;----;;--------                                                      ",
"                              ;;oo--oooo----oo                                                      ",
"                              ;;oo--oooo----oo                                                      ",
"                              oo<<>><<55;;oo==                                                      ",
"                              oo<<>><<55;;oo==                                                      ",
"                                33333333oooo====                                                    ",
"                                33333333oooo====                                                    ",
"                              ::==>>>>::::$$##,,,,##                                                ",
"                              ::==>>>>::::$$##,,,,##                                                ",
"                            ,,$$::::::$$$$==####,,,,,,1144                                          ",
"                            ,,$$::::::$$$$==####,,,,,,1144                                          ",
"                            ,,$$$$$$$$$$==&&&&11++++114444::                                        ",
"                            ,,$$$$$$$$$$==&&&&11++++114444::                                        ",
"                            ,,##====@@@@&&1111%%%%==114444==                                        ",
"                            ,,##====@@@@&&1111%%%%==114444==                                        ",
"                    ,,444444####1111@@@@%%%%%%%%%%++1144==$$====                                    ",
"                    ,,444444####1111@@@@%%%%%%%%%%++1144==$$====                                    ",
"                    ##11111111++++&&%%@@@@%%&&%%%%##11$$==$$$$==                                    ",
"                    ##11111111++++&&%%@@@@%%&&%%%%##11$$==$$$$==                                    ",
"                      ++111111++    %%##,,,,%%&&&&    $$$$$$$$$$==                                  ",
"                      ++111111++    %%##,,,,%%&&&&    $$$$$$$$$$==                                  ",
"                                    &&@@,,,,,,%%&&      $$$$$$$$                                    ",
"                                    &&@@,,,,,,%%&&      $$$$$$$$                                    ",
"                                    %%######@@@@@@      $$$$$$$$                                    ",
"                                    %%######@@@@@@      $$$$$$$$                                    ",
"                                    %%%%%%%%%%%%%%%%                                                ",
"                                    %%%%%%%%%%%%%%%%                                                ",
"                                  OOOOOOOOOO......%%                                                ",
"                                  OOOOOOOOOO......%%                                                ",
"                                OOOOOOOOOO..........                                                ",
"                                OOOOOOOOOO..........                                                ",
"                                OOOOOO................                                              ",
"                                OOOOOO................                                              ",
"                                  ....%%%%    ........                                              ",
"                                  ....%%%%    ........                                              ",
"                                    ..**%%XX    ........                                            ",
"                                    ..**%%XX    ........                                            ",
"                                        **%%      ......                                            ",
"                                        **%%      ......                                            ",
"                                        **          XX%%%%                                          ",
"                                        **          XX%%%%                                          ",
"                                                      XX%%                                          ",
"                                                      XX%%                                          ",
"                                                        XX%%                                        ",
"                                                        XX%%                                        ",
"                                                        XXXX                                        ",
"                                                        XXXX                                        ",
"                                                      XXXXXX                                        ",
"                                                      XXXXXX                                        "
};
