/* XPM */
static char *adventurer_run_001670853477[] = {
/* columns rows colors chars-per-pixel */
"100 75 26 1 ",
"  c None",
". c #293532",
"X c #613F27",
"o c #704431",
"O c #374340",
"+ c #34777E",
"@ c #585551",
"# c #545358",
"$ c #6B6970",
"% c #902E2E",
"& c #AE3838",
"* c #814C33",
"= c #905538",
"- c #905E45",
"; c #AC4141",
": c #9F6450",
"> c #AC775E",
", c #DA5663",
"< c #DAA166",
"1 c #857F88",
"2 c #33899A",
"3 c #9CAEB8",
"4 c #CA9680",
"5 c #EEC49B",
"6 c #CCDCFC",
"7 c #D7ECFF",
/* pixels */
"                                                                                                    ",
"                                                                                                    ",
"                                                                                                    ",
"                                                                                                    ",
"                                                                                                    ",
"                                                                                                    ",
"                                                                                                    ",
"                                                                                                    ",
"                                                                                                    ",
"                                                                                                    ",
"                                                                                                    ",
"                                                                                                    ",
"                                                                                                    ",
"                                                                                                    ",
"                                                                                                    ",
"                                                                                                    ",
"                                                                                                    ",
"                                                                                                    ",
"                                                                                                    ",
"                                                                                                    ",
"                                  44444444                                                          ",
"                                  44444444                                                          ",
"                              4444::>>>>oo                                                          ",
"                              4444::>>>>oo                                                          ",
"                            >>>>::>>>>oo::oo                                                        ",
"                            >>>>::>>>>oo::oo                                                        ",
"                            >>::::>>::::::::                                                        ",
"                            >>::::>>::::::::                                                        ",
"                            >>oo::oooo::::oo                                                        ",
"                            >>oo::oooo::::oo                                                        ",
"                            oo22<<2277>>oo&&$$$$                                                    ",
"                            oo22<<2277>>oo&&$$$$                                                    ",
"                              55555555oooo%%;;@@$$                                                  ",
"                              55555555oooo%%;;@@$$                                                  ",
"                              ;;<<<<,,%%%%%%;;;;,,,,                                                ",
"                              ;;<<<<,,%%%%%%;;;;,,,,                                                ",
"                              ,,,,,,%%$$$$$$**%%%%%%,,,,                                            ",
"                              ,,,,,,%%$$$$$$**%%%%%%,,,,                                            ",
"                              %%%%%%;;$$11$$****%%;;%%%%,,,,                                        ",
"                              %%%%%%;;$$11$$****%%;;%%%%,,,,                                        ",
"                              ;;;;;;$$$$11$$****33;;;;%%%%;;                                        ",
"                              ;;;;;;$$$$11$$****33;;;;%%%%;;                                        ",
"                                3333@@$$11$$****    %%;;;;%%;;;;                                    ",
"                                3333@@$$11$$****    %%;;;;%%;;;;                                    ",
"                          116666666666@@$$********  %%%%;;%%%%;;                                    ",
"                          116666666666@@$$********  %%%%;;%%%%;;                                    ",
"                          $$666666663333@@**==****    %%%%%%%%%%;;                                  ",
"                          $$666666663333@@**==****    %%%%%%%%%%;;                                  ",
"                          @@33333333331111****====      %%%%%%%%                                    ",
"                          @@33333333331111****====      %%%%%%%%                                    ",
"                                    $$$$$$########      %%%%%%%%                                    ",
"                                    $$$$$$########      %%%%%%%%                                    ",
"                                    ========********                                                ",
"                                    ========********                                                ",
"                                  OO..........OOOO**                                                ",
"                                  OO..........OOOO**                                                ",
"                                OO............OOOOOO                                                ",
"                                OO............OOOOOO                                                ",
"                                OO..............OOOOOO                                              ",
"                                OO..............OOOOOO                                              ",
"                                  ....XXXX    ++..OOOO                                              ",
"                                  ....XXXX    ++..OOOO                                              ",
"                                    ..**XXXX    ....OO                                              ",
"                                    ..**XXXX    ....OO                                              ",
"                                        **XX      ....**                                            ",
"                                        **XX      ....**                                            ",
"                                        **          ------                                          ",
"                                        **          ------                                          ",
"                                                      ----                                          ",
"                                                      ----                                          ",
"                                                        **--                                        ",
"                                                        **--                                        ",
"                                                        XX**                                        ",
"                                                        XX**                                        ",
"                                                      XXXXXX                                        ",
"                                                      XXXXXX                                        "                                                                                                  "
};
