/* XPM */
static char *adventurer_jump_041671041055[] = {
/* columns rows colors chars-per-pixel */
"100 75 24 1 ",
"  c None",
". c #293532",
"X c #613F27",
"o c #704431",
"O c #374340",
"+ c #585551",
"@ c #545358",
"# c #6B6970",
"$ c #902E2E",
"% c #814C33",
"& c #905538",
"* c #905E45",
"= c #AC4141",
"- c #9F6450",
"; c #AC775E",
": c #DA5663",
"> c #DAA166",
", c #857F88",
"< c #33899A",
"1 c #9CAEB8",
"2 c #CA9680",
"3 c #EEC49B",
"4 c #CCDCFC",
"5 c #D7ECFF",
/* pixels */
"                                                                                                    ",
"                                                                                                    ",
"                                                                                                    ",
"                                                                                                    ",
"                                                                                                    ",
"                                                                                                    ",
"                                                                                                    ",
"                                                                                                    ",
"                                                                                                    ",
"                                                                                                    ",
"                                                                                                    ",
"                                                                                                    ",
"                                                                                                    ",
"                                                                                                    ",
"                                                                                                    ",
"                                                                                                    ",
"                                                                                                    ",
"                                        22222222                                                    ",
"                                        22222222                                                    ",
"                                    2222--;;;;oo                                                    ",
"                                    2222--;;;;oo                                                    ",
"                                  ;;;;--;;;;oo--oo                                                  ",
"                                  ;;;;--;;;;oo--oo                                                  ",
"                                  ;;----;;--------::::                                              ",
"                                  ;;----;;--------::::                                              ",
"                                  ;;oo--oooo----oo$$$$::                                            ",
"                                  ;;oo--oooo----oo$$$$::                                            ",
"                                  oo<<>><<55;;oo==$$$$$$::                                          ",
"                                  oo<<>><<55;;oo==$$$$$$::                                          ",
"                                  ::33333333oo++##========::                                        ",
"                                  ::33333333oo++##========::                                        ",
"                                  $$$$>>>>==&&++,,,,$$$$====::                                      ",
"                                  $$$$>>>>==&&++,,,,$$$$====::                                      ",
"                                    ==++++&&11++,,,,%%==$$==::::                                    ",
"                                    ==++++&&11++,,,,%%==$$==::::                                    ",
"                                    11##11111144##,,%%$$$$====::                                    ",
"                                    11##11111144##,,%%$$$$====::                                    ",
"                                  ++44,,1144444444,,%%  $$====::                                    ",
"                                  ++44,,1144444444,,%%  $$====::                                    ",
"                                  ##,,%%##,,%%&&&&%%%%    ====::                                    ",
"                                  ##,,%%##,,%%&&&&%%%%    ====::                                    ",
"                                        @@,,,,&&%%&&%%    ====::                                    ",
"                                        @@,,,,&&%%&&%%    ====::                                    ",
"                                    OO......OOOOOOOO%%    ====::                                    ",
"                                    OO......OOOOOOOO%%    ====::                                    ",
"                                  ............OOOOOOOO    ====::                                    ",
"                                  ............OOOOOOOO    ====::                                    ",
"                                  ........XXXX..%%**XXXX  ====                                      ",
"                                  ........XXXX..%%**XXXX  ====                                      ",
"                                    ..%%%%%%%%    %%%%**XX====                                      ",
"                                    ..%%%%%%%%    %%%%**XX====                                      ",
"                                          XXXX%%        ====::                                      ",
"                                          XXXX%%        ====::                                      ",
"                                                      ====::                                        ",
"                                                      ====::                                        ",
"                                                ::::::::                                            ",
"                                                ::::::::                                            ",
"                                                                                                    ",
"                                                                                                    ",
"                                                                                                    ",
"                                                                                                    ",
"                                                                                                    ",
"                                                                                                    ",
"                                                                                                    ",
"                                                                                                    ",
"                                                                                                    ",
"                                                                                                    ",
"                                                                                                    ",
"                                                                                                    ",
"                                                                                                    ",
"                                                                                                    ",
"                                                                                                    ",
"                                                                                                    ",
"                                                                                                    ",
"                                                                                                    "
};
