/* XPM */
static char *adventurer_jump_071671041055[] = {
/* columns rows colors chars-per-pixel */
"100 75 24 1 ",
"  c None",
". c #293532",
"X c #613F27",
"o c #704431",
"O c #374340",
"+ c #585551",
"@ c #545358",
"# c #6B6970",
"$ c #902E2E",
"% c #814C33",
"& c #905538",
"* c #905E45",
"= c #AC4141",
"- c #9F6450",
"; c #AC775E",
": c #DA5663",
"> c #DAA166",
", c #857F88",
"< c #33899A",
"1 c #9CAEB8",
"2 c #CA9680",
"3 c #EEC49B",
"4 c #CCDCFC",
"5 c #D7ECFF",
/* pixels */
"                                                                                                    ",
"                                                                                                    ",
"                                                                                                    ",
"                                                                                                    ",
"                                                                                                    ",
"                                                                                                    ",
"                                                                                                    ",
"                                                                                                    ",
"                                                                                                    ",
"                                                                                                    ",
"                                                                                                    ",
"                                                                                                    ",
"                                                                                                    ",
"                                                                                                    ",
"                                                                                                    ",
"                                                                                                    ",
"                                                                                                    ",
"                                                                                                    ",
"                                                                                                    ",
"                                                                                                    ",
"                                                                                                    ",
"                                                                                                    ",
"                                                                                                    ",
"                                                                                                    ",
"                                                                                                    ",
"                                                                                                    ",
"                                                                                                    ",
"                                                            oo;;;;;;                                ",
"                                                            oo;;;;;;                                ",
"                                              ,,##    $$::33<<oo;;;;                                ",
"                                              ,,##    $$::33<<oo;;;;                                ",
"                                              1111  ##$$>>33>>------                                ",
"                                              1111  ##$$>>33>>------                                ",
"                                      ....  ,,111111==$$>>33<<oo;;;;2222                            ",
"                                      ....  ,,111111==$$>>33<<oo;;;;2222                            ",
"                                      ....  @@4411@@@@$$>>>>55oo--;;2222                            ",
"                                      ....  @@4411@@@@$$>>>>55oo--;;2222                            ",
"                                      ....  ,,4444++++==$$::>>----oo;;22                            ",
"                                      ....  ,,4444++++==$$::>>----oo;;22                            ",
"                                      ......,,4444++++&&==$$>>------oo22                            ",
"                                      ......,,4444++++&&==$$>>------oo22                            ",
"                                  XX%%XX....&&44,,,,##&&&&$$$$oo--oo                                ",
"                                  XX%%XX....&&44,,,,##&&&&$$$$oo--oo                                ",
"                                  XX%%XX..OO%%%%$$$$==%%$$$$$$$$$$$$                                ",
"                                  XX%%XX..OO%%%%$$$$==%%$$$$$$$$$$$$                                ",
"                                  %%  ..OOOO&&%%%%%%$$$$$$$$$$$$$$::                                ",
"                                  %%  ..OOOO&&%%%%%%$$$$$$$$$$$$$$::                                ",
"                          ::    $$    %%OOOO%%%%%%$$==$$$$$$==::::                                  ",
"                          ::    $$    %%OOOO%%%%%%$$==$$$$$$==::::                                  ",
"                            ::    $$%%**OOOO%%  $$$$$$$$======::                                    ",
"                            ::    $$%%**OOOO%%  $$$$$$$$======::                                    ",
"                            ::==$$$$$$$$$$$$$$$$$$$$========::::                                    ",
"                            ::==$$$$$$$$$$$$$$$$$$$$========::::                                    ",
"                              ::==$$$$$$$$$$$$$$$$========::::                                      ",
"                              ::==$$$$$$$$$$$$$$$$========::::                                      ",
"                                ::====$$$$$$$$========::::::                                        ",
"                                ::====$$$$$$$$========::::::                                        ",
"                                  ::================::::::                                          ",
"                                  ::================::::::                                          ",
"                                    ::::::::::::::::                                                ",
"                                    ::::::::::::::::                                                ",
"                                                                                                    ",
"                                                                                                    ",
"                                                                                                    ",
"                                                                                                    ",
"                                                                                                    ",
"                                                                                                    ",
"                                                                                                    ",
"                                                                                                    ",
"                                                                                                    ",
"                                                                                                    ",
"                                                                                                    ",
"                                                                                                    ",
"                                                                                                    ",
"                                                                                                    "
};
