/* XPM */
static char *adventurer_jump_001671041054[] = {
/* columns rows colors chars-per-pixel */
"100 75 25 1 ",
"  c None",
". c #293532",
"X c #613F27",
"o c #704431",
"O c #374340",
"+ c #585551",
"@ c #545358",
"# c #6B6970",
"$ c #902E2E",
"% c #AE3838",
"& c #814C33",
"* c #905538",
"= c #905E45",
"- c #AC4141",
"; c #9F6450",
": c #AC775E",
"> c #DA5663",
", c #DAA166",
"< c #857F88",
"1 c #33899A",
"2 c #9CAEB8",
"3 c #CA9680",
"4 c #EEC49B",
"5 c #CCDCFC",
"6 c #D7ECFF",
/* pixels */
"                                                                                                    ",
"                                                                                                    ",
"                                                                                                    ",
"                                                                                                    ",
"                                                                                                    ",
"                                                                                                    ",
"                                                                                                    ",
"                                                                                                    ",
"                                                                                                    ",
"                                                                                                    ",
"                                                                                                    ",
"                                                                                                    ",
"                                                                                                    ",
"                                                                                                    ",
"                                                                                                    ",
"                                                                                                    ",
"                                                                                                    ",
"                                                                                                    ",
"                                                                                                    ",
"                                                                                                    ",
"                                                                                                    ",
"                                                                                                    ",
"                                                                                                    ",
"                                                                                                    ",
"                                                                                                    ",
"                                          33333333                                                  ",
"                                          33333333                                                  ",
"                                      3333;;::::oo                                                  ",
"                                      3333;;::::oo                                                  ",
"                                    ::::;;::::oo;;oo                                                ",
"                                    ::::;;::::oo;;oo                                                ",
"                                    ::;;;;::;;;;;;;;                                                ",
"                                    ::;;;;::;;;;;;;;                                                ",
"                                    ::oo;;oooo;;;;oo                                                ",
"                                    ::oo;;oooo;;;;oo                                                ",
"                                    oo11,,1166::oo%%$$----                                          ",
"                                    oo11,,1166::oo%%$$----                                          ",
"                                      44444444oooo$$##<<-->>                                        ",
"                                      44444444oooo$$##<<-->>                                        ",
"                                      <<,,,,>>>>$$--<<<<<<-->>                                      ",
"                                      <<,,,,>>>>$$--<<<<<<-->>                                      ",
"                                      >>>>>>$$$$--**++<<<<<<$$>>                                    ",
"                                      >>>>>>$$$$--**++<<<<<<$$>>                                    ",
"                                    ##$$$$$$$$--****22++++####>>                                    ",
"                                    ##$$$$$$$$--****22++++####>>                                    ",
"                                  5555++----@@**2222&&  225555$$>>                                  ",
"                                  5555++----@@**2222&&  225555$$>>                                  ",
"                                555522++2222@@&&&&&&&&  225555$$-->>                                ",
"                                555522++2222@@&&&&&&&&  225555$$-->>                                ",
"                              555522    **&&@@@@&&****  225555--$$--                                ",
"                              555522    **&&@@@@&&****  225555--$$--                                ",
"                              <<##++      &&##<<&&****  222255--$$--                                ",
"                              <<##++      &&##<<&&****  222255--$$--                                ",
"                                          **@@<<<<**&&  ++2222$$$$----                              ",
"                                          **@@<<<<**&&  ++2222$$$$----                              ",
"                                          &&&&&&&&&&&&  ++##<<$$$$$$--                              ",
"                                          &&&&&&&&&&&&  ++##<<$$$$$$--                              ",
"                                        &&............&&  $$$$$$$$$$--                              ",
"                                        &&............&&  $$$$$$$$$$--                              ",
"                                        ..OO........OO..        $$$$                                ",
"                                        ..OO........OO..        $$$$                                ",
"                                        OOOO....  ..OOOO                                            ",
"                                        OOOO....  ..OOOO                                            ",
"                                        OOOO..    ..OOOO                                            ",
"                                        OOOO..    ..OOOO                                            ",
"                                        &&..        XX&&                                            ",
"                                        &&..        XX&&                                            ",
"                                        &&XX        XX==&&==                                        ",
"                                        &&XX        XX==&&==                                        ",
"                                          &&XX      ========                                        ",
"                                          &&XX      ========                                        ",
"                                        &&XXXX          XX&&                                        ",
"                                        &&XXXX          XX&&                                        ",
"                                                                                                    ",
"                                                                                                    "
};
