/* XPM */
static char *adventurer_jump_031671041055[] = {
/* columns rows colors chars-per-pixel */
"100 75 23 1 ",
"  c None",
". c #293532",
"X c #613F27",
"o c #704431",
"O c #374340",
"+ c #585551",
"@ c #545358",
"# c #6B6970",
"$ c #902E2E",
"% c #814C33",
"& c #905538",
"* c #905E45",
"= c #AC4141",
"- c #9F6450",
"; c #AC775E",
": c #DA5663",
"> c #DAA166",
", c #857F88",
"< c #33899A",
"1 c #9CAEB8",
"2 c #CA9680",
"3 c #EEC49B",
"4 c #CCDCFC",
/* pixels */
"                                                                                                    ",
"                                                                                                    ",
"                                                                                                    ",
"                                                                                                    ",
"                                                                                                    ",
"                                                                                                    ",
"                                                                                                    ",
"                                                                                                    ",
"                                                                                                    ",
"                                                                                                    ",
"                                                                                                    ",
"                                          ,,##++                                                    ",
"                                          ,,##++                                                    ",
"                                          1111++22                                                  ",
"                                          1111++22                                                  ",
"                                  ,,##22224411;;oo                                                  ",
"                                  ,,##22224411;;oo                                                  ",
"                                  44;;;;--4411oo--oo                                                ",
"                                  44;;;;--4411oo--oo                                                ",
"                                4411;;----444411----                                                ",
"                                4411;;----444411----                                                ",
"                              441111;;oo--444411--oo                                                ",
"                              441111;;oo--444411--oo                                                ",
"                              4411++oo<<>>,,##++oo  ::::                                            ",
"                              4411++oo<<>>,,##++oo  ::::                                            ",
"                              ,,####++333333,,##++::$$$$::                                          ",
"                              ,,####++333333,,##++::$$$$::                                          ",
"                                ,,##====>>>>,,,,++==$$$$$$::                                        ",
"                                ,,##====>>>>,,,,++==$$$$$$::                                        ",
"                                  ::::::$$$$==,,##++========::                                      ",
"                                  ::::::$$$$==,,##++========::                                      ",
"                                  $$$$$$$$==&&####++$$$$$$====::                                    ",
"                                  $$$$$$$$==&&####++$$$$$$====::                                    ",
"                                    ====@@&&1111%%%%  $$==$$==$$::                                  ",
"                                    ====@@&&1111%%%%  $$==$$==$$::                                  ",
"                                    11%%@@%%%%%%%%%%    $$$$====::                                  ",
"                                    11%%@@%%%%%%%%%%    $$$$====::                                  ",
"                                      %%@@@@%%&&&&%%      $$$$==$$::                                ",
"                                      %%@@@@%%&&&&%%      $$$$==$$::                                ",
"                                      %%##,,%%&&&&%%        $$$$==::                                ",
"                                      %%##,,%%&&&&%%        $$$$==::                                ",
"                                        @@,,,,&&%%&&        $$$$==$$::                              ",
"                                        @@,,,,&&%%&&        $$$$==$$::                              ",
"                                        %%%%%%%%%%%%        $$$$$$====::                            ",
"                                        %%%%%%%%%%%%        $$$$$$====::                            ",
"                                    OO......OOOOOOOO            $$==                                ",
"                                    OO......OOOOOOOO            $$==                                ",
"                                  ............OOOOOOOO                                              ",
"                                  ............OOOOOOOO                                              ",
"                                  ........XX  ..%%****                                              ",
"                                  ........XX  ..%%****                                              ",
"                                    ..%%XXXX      %%%%**                                            ",
"                                    ..%%XXXX      %%%%**                                            ",
"                                        %%          XX%%                                            ",
"                                        %%          XX%%                                            ",
"                                        %%            XX                                            ",
"                                        %%            XX                                            ",
"                                                                                                    ",
"                                                                                                    ",
"                                                                                                    ",
"                                                                                                    ",
"                                                                                                    ",
"                                                                                                    ",
"                                                                                                    ",
"                                                                                                    ",
"                                                                                                    ",
"                                                                                                    ",
"                                                                                                    ",
"                                                                                                    ",
"                                                                                                    ",
"                                                                                                    ",
"                                                                                                    ",
"                                                                                                    ",
"                                                                                                    ",
"                                                                                                    "
};
