/* XPM */
static char *adventurer_jump_061671041055[] = {
/* columns rows colors chars-per-pixel */
"100 75 25 1 ",
"  c None",
". c #293532",
"X c #613F27",
"o c #704431",
"O c #374340",
"+ c #585551",
"@ c #545358",
"# c #6B6970",
"$ c #902E2E",
"% c #AE3838",
"& c #814C33",
"* c #905538",
"= c #905E45",
"- c #AC4141",
"; c #9F6450",
": c #AC775E",
"> c #DA5663",
", c #DAA166",
"< c #857F88",
"1 c #33899A",
"2 c #9CAEB8",
"3 c #CA9680",
"4 c #EEC49B",
"5 c #CCDCFC",
"6 c #D7ECFF",
/* pixels */
"                                                                                                    ",
"                                                                                                    ",
"                                                                                                    ",
"                                                                                                    ",
"                                                                                                    ",
"                                                                                                    ",
"                                                                                                    ",
"                                                                                                    ",
"                                                                                                    ",
"                                                                                                    ",
"                                                                                                    ",
"                                                                                                    ",
"                                                                                                    ",
"                                                                                                    ",
"                                                                                                    ",
"                                                                                                    ",
"                                                                                                    ",
"                                                                                                    ",
"                                                                                                    ",
"                                                                                                    ",
"                                                                                                    ",
"                              ----                                                                  ",
"                              ----                                                                  ",
"                          >>--          &&XXXX                                                      ",
"                          >>--          &&XXXX                                                      ",
"                          ------$$&&&&    &&&&&&                                                    ",
"                          ------$$&&&&    &&&&&&                                                    ",
"                          >>--$$$$XX==&&..XXXX........                                              ",
"                          >>--$$$$XX==&&..XXXX........                                              ",
"                        >>>>--$$$$  OOOOOO............                                              ",
"                        >>>>--$$$$  OOOOOO............                                              ",
"                        >>>>--$$$$  OOOOOOOO....<<##                                                ",
"                        >>>>--$$$$  OOOOOOOO....<<##                                                ",
"                        >>>>$$$$$$  &&&&&&&&&&&&5522                                                ",
"                        >>>>$$$$$$  &&&&&&&&&&&&5522                                                ",
"                        >>>>$$$$$$$$&&**&&**<<<<@@                                                  ",
"                        >>>>$$$$$$$$&&**&&**<<<<@@                                                  ",
"                        >>>>--$$$$$$&&&&&&555555552222<<                                            ",
"                        >>>>--$$$$$$&&&&&&555555552222<<                                            ",
"                        >>>>--$$$$$$&&&&**<<5555222222##                                            ",
"                        >>>>--$$$$$$&&&&**<<5555222222##                                            ",
"                          >>>>--$$--$$$$&&<<++++@@&&<<                                              ",
"                          >>>>--$$--$$$$&&<<++++@@&&<<                                              ",
"                            >>--$$--$$--$$##++++@@--                                                ",
"                            >>--$$--$$--$$##++++@@--                                                ",
"                            >>>>------$$$$$$**--$$$$,,,,                                            ",
"                            >>>>------$$$$$$**--$$$$,,,,                                            ",
"                                >>>>--------$$$$>>444444                                            ",
"                                >>>>--------$$$$>>444444                                            ",
"                                  >>>>$$$$$$-->>oo6611,,11oo                                        ",
"                                  >>>>$$$$$$-->>oo6611,,11oo                                        ",
"                                    >>>>$$$$oo;;;;oooo;;oo::                                        ",
"                                    >>>>$$$$oo;;;;oooo;;oo::                                        ",
"                                        >>%%;;;;;;;;::;;::::                                        ",
"                                        >>%%;;;;;;;;::;;::::                                        ",
"                                            oo;;oo::::;;::::                                        ",
"                                            oo;;oo::::;;::::                                        ",
"                                              oo::3333                                              ",
"                                              oo::3333                                              ",
"                                              33333333                                              ",
"                                              33333333                                              ",
"                                                                                                    ",
"                                                                                                    ",
"                                                                                                    ",
"                                                                                                    ",
"                                                                                                    ",
"                                                                                                    ",
"                                                                                                    ",
"                                                                                                    ",
"                                                                                                    ",
"                                                                                                    ",
"                                                                                                    ",
"                                                                                                    ",
"                                                                                                    ",
"                                                                                                    "
};
