/* XPM */
static char *adventurer_jump_051671041055[] = {
/* columns rows colors chars-per-pixel */
"100 75 24 1 ",
"  c None",
". c #293532",
"X c #613F27",
"o c #704431",
"O c #374340",
"+ c #585551",
"@ c #545358",
"# c #6B6970",
"$ c #902E2E",
"% c #814C33",
"& c #905538",
"* c #905E45",
"= c #AC4141",
"- c #9F6450",
"; c #AC775E",
": c #DA5663",
"> c #DAA166",
", c #857F88",
"< c #33899A",
"1 c #9CAEB8",
"2 c #CA9680",
"3 c #EEC49B",
"4 c #CCDCFC",
"5 c #D7ECFF",
/* pixels */
"                                                                                                    ",
"                                                                                                    ",
"                                                                                                    ",
"                                                                                                    ",
"                                                                                                    ",
"                                                                                                    ",
"                                                                                                    ",
"                                                                                                    ",
"                                                                                                    ",
"                                                                                                    ",
"                                                                                                    ",
"                                                                                                    ",
"                                                                                                    ",
"                                                                                                    ",
"                                                                                                    ",
"                                                                                                    ",
"                                                                                                    ",
"                                                                                                    ",
"                                                                                                    ",
"                                                                                                    ",
"                                                                                                    ",
"                                                      ::::::::::                                    ",
"                                                      ::::::::::                                    ",
"                                              ::::::::$$$$$$====::::                                ",
"                                              ::::::::$$$$$$====::::                                ",
"                                            ::========$$$$$$$$$$====::                              ",
"                                            ::========$$$$$$$$$$====::                              ",
"                                          ::====$$$$$$$$$$XX**    ====::                            ",
"                                          ::====$$$$$$$$$$XX**    ====::                            ",
"                                        ::::==$$$$$$$$$$  XX%%      ==                              ",
"                                        ::::==$$$$$$$$$$  XX%%      ==                              ",
"                                      ::::======$$$$$$OOOO**%%                                      ",
"                                      ::::======$$$$$$OOOO**%%                                      ",
"                                      ::##,,,,44%%%%%%OOOO%%                                        ",
"                                      ::##,,,,44%%%%%%OOOO%%                                        ",
"                                    ::$$++++4444%%%%&&OOOO..  %%                                    ",
"                                    ::$$++++4444%%%%&&OOOO..  %%                                    ",
"                                  ::$$$$++++4444&&%%%%OO..XX%%XX                                    ",
"                                  ::$$$$++++4444&&%%%%OO..XX%%XX                                    ",
"                              oo--oo::$$==$$1144&&&&&&....XX%%XX                                    ",
"                              oo--oo::$$==$$1144&&&&&&....XX%%XX                                    ",
"                          22oo------oo==$$&&1111%%,,,,......%%                                      ",
"                          22oo------oo==$$&&1111%%,,,,......%%                                      ",
"                          22;;oo----oooo$$==1111@@,,,,......%%                                      ",
"                          22;;oo----oooo$$==1111@@,,,,......%%                                      ",
"                          22;;;;--oo5533::$$##,,@@##@@  ....                                        ",
"                          22;;;;--oo5533::$$##,,@@##@@  ....                                        ",
"                          2222;;;;oo<<33>>$$==%%%%      ....                                        ",
"                          2222;;;;oo<<33>>$$==%%%%      ....                                        ",
"                            22------>>33>>$$==                                                      ",
"                            22------>>33>>$$==                                                      ",
"                              ;;;;oo<<  ::$$                                                        ",
"                              ;;;;oo<<  ::$$                                                        ",
"                              ;;;;;;oo                                                              ",
"                              ;;;;;;oo                                                              ",
"                                                                                                    ",
"                                                                                                    ",
"                                                                                                    ",
"                                                                                                    ",
"                                                                                                    ",
"                                                                                                    ",
"                                                                                                    ",
"                                                                                                    ",
"                                                                                                    ",
"                                                                                                    ",
"                                                                                                    ",
"                                                                                                    ",
"                                                                                                    ",
"                                                                                                    ",
"                                                                                                    ",
"                                                                                                    ",
"                                                                                                    ",
"                                                                                                    ",
"                                                                                                    ",
"                                                                                                    "
};
