/* XPM */
static char *adventurer_jump_021671041055[] = {
/* columns rows colors chars-per-pixel */
"100 75 23 1 ",
"  c None",
". c #293532",
"X c #613F27",
"o c #704431",
"O c #374340",
"+ c #585551",
"@ c #545358",
"# c #6B6970",
"$ c #902E2E",
"% c #814C33",
"& c #905538",
"* c #905E45",
"= c #AC4141",
"- c #9F6450",
"; c #AC775E",
": c #DA5663",
"> c #857F88",
", c #33899A",
"< c #9CAEB8",
"1 c #CA9680",
"2 c #EEC49B",
"3 c #CCDCFC",
"4 c #D7ECFF",
/* pixels */
"                                                                                                    ",
"                                                                                                    ",
"                                                                                                    ",
"                                                                                                    ",
"                                                                                                    ",
"                                                                                                    ",
"                                                                                                    ",
"                                                                                                    ",
"                                                                                                    ",
"                                                                                                    ",
"                                                                                                    ",
"                                                                                                    ",
"                                                                                                    ",
"                                                                                                    ",
"                                                                                                    ",
"                                      >>##++111111                                                  ",
"                                      >>##++111111                                                  ",
"                                      <<<<++;;;;oo                                                  ",
"                                      <<<<++;;;;oo                                                  ",
"                                >>##;;33<<;;;;oo--oo                                                ",
"                                >>##;;33<<;;;;oo--oo                                                ",
"                                33++3333<<;;--------                                                ",
"                                33++3333<<;;--------                                                ",
"                              33<<<<3333<<oooo----oo                                                ",
"                              33<<<<3333<<oooo----oo                                                ",
"                            33<<<<  3333<<,,44;;oo                                                  ",
"                            33<<<<  3333<<,,44;;oo                                                  ",
"                            33<<++  ##>>++2222oooo%%                                                ",
"                            33<<++  ##>>++2222oooo%%                                                ",
"                            >>####++##>>>>++++++++====                                              ",
"                            >>####++##>>>>++++++++====                                              ",
"                              >>##::::####>>>>>>##==::                                              ",
"                              >>##::::####>>>>>>##==::                                              ",
"                                >>$$$$$$$$########$$==::                                            ",
"                                >>$$$$$$$$########$$==::                                            ",
"                                    ====@@&&<<<<%%$$==::                                            ",
"                                    ====@@&&<<<<%%$$==::                                            ",
"                                    <<%%@@%%%%%%%%$$==$$::                                          ",
"                                    <<%%@@%%%%%%%%$$==$$::                                          ",
"                                      %%@@@@%%&&&&%%====::                                          ",
"                                      %%@@@@%%&&&&%%====::                                          ",
"                                      %%##>>%%&&&&%%$$==$$::                                        ",
"                                      %%##>>%%&&&&%%$$==$$::                                        ",
"                                        @@>>>>&&%%&&$$====::                                        ",
"                                        @@>>>>&&%%&&$$====::                                        ",
"                                        &&&&&&%%%%%%$$$$==$$::                                      ",
"                                        &&&&&&%%%%%%$$$$==$$::                                      ",
"                                    OO........OOOOOO  $$$$==::                                      ",
"                                    OO........OOOOOO  $$$$==::                                      ",
"                                  OO............OOOO  $$  ==$$::                                    ",
"                                  OO............OOOO  $$  ==$$::                                    ",
"                                  OO............OOOOOO  ==  $$::                                    ",
"                                  OO............OOOOOO  ==  $$::                                    ",
"                                    ....XXXX  ..OOOOOO      ==$$::                                  ",
"                                    ....XXXX  ..OOOOOO      ==$$::                                  ",
"                                      ..%%XXXX  ....OO          ::                                  ",
"                                      ..%%XXXX  ....OO          ::                                  ",
"                                          %%XX    ..OO%%                                            ",
"                                          %%XX    ..OO%%                                            ",
"                                          %%      ..****                                            ",
"                                          %%      ..****                                            ",
"                                                    %%****                                          ",
"                                                    %%****                                          ",
"                                                      %%%%**                                        ",
"                                                      %%%%**                                        ",
"                                                        XX%%                                        ",
"                                                        XX%%                                        ",
"                                                          XX                                        ",
"                                                          XX                                        ",
"                                                                                                    ",
"                                                                                                    ",
"                                                                                                    ",
"                                                                                                    ",
"                                                                                                    ",
"                                                                                                    "
};
