/* XPM */
static char *adventurer_fall_011670773887[] = {
/* columns rows colors chars-per-pixel */
"100 75 24 1 ",
"  c None",
". c #2D3835",
"X c #61412B",
"o c #704634",
"O c #3A4542",
"+ c #595652",
"@ c #555459",
"# c #6B6970",
"$ c #8F3232",
"% c #804D36",
"& c #8F563B",
"* c #8F5E47",
"= c #AB4343",
"- c #9E6451",
"; c #AB765E",
": c #D95763",
"> c #C9957F",
", c #D9A066",
"< c #847E87",
"1 c #368899",
"2 c #9BADB7",
"3 c #EEC39A",
"4 c #CBDBFC",
"5 c #D6EBFF",
/* pixels */
"                                                                                                    ",
"                                                                                                    ",
"                                                                                                    ",
"                                                                                                    ",
"                                                                                                    ",
"                                          ==                                                        ",
"                                          ==                                                        ",
"                                          ==::                                                      ",
"                                          ==::                                                      ",
"                                            ==::                                                    ",
"                                            ==::                                                    ",
"                                    $$========::                                                    ",
"                                    $$========::                                                    ",
"                                      $$====::++##<<                                                ",
"                                      $$====::++##<<                                                ",
"                                        $$==$$++2244>>>>                                            ",
"                                        $$==$$++2244>>>>                                            ",
"                                        $$====$$2244;;-->>>>##<<                                    ",
"                                        $$====$$2244;;-->>>>##<<                                    ",
"                                          $$==oo2244;;;;--;;;;44                                    ",
"                                          $$==oo2244;;;;--;;;;44                                    ",
"                                          $$$$224444--;;----;;2244                                  ",
"                                          $$$$224444--;;----;;2244                                  ",
"                                            $$224444oooo--oo;;2244                                  ",
"                                            $$224444oooo--oo;;2244                                  ",
"                                              ++##<<5511,,11oo224444                                ",
"                                              ++##<<5511,,11oo224444                                ",
"                                              ++<<<<33333333  ++2244                                ",
"                                              ++<<<<33333333  ++2244                                ",
"                                              ++<<##::,,,,==++####<<                                ",
"                                              ++<<##::,,,,==++####<<                                ",
"                                              ++<<##$$$$::::::##<<                                  ",
"                                              ++<<##$$$$::::::##<<                                  ",
"                                              ++##&&==$$$$$$$$<<                                    ",
"                                              ++##&&==$$$$$$$$<<                                    ",
"                                              %%2222&&@@====<<                                      ",
"                                              %%2222&&@@====<<                                      ",
"                                              %%%%%%%%%%@@%%22                                      ",
"                                              %%%%%%%%%%@@%%22                                      ",
"                                              %%&&&&%%@@@@%%                                        ",
"                                              %%&&&&%%@@@@%%                                        ",
"                                                &&&&%%<<##%%                                        ",
"                                                &&&&%%<<##%%                                        ",
"                                                &&%%&&<<<<@@                                        ",
"                                                &&%%&&<<<<@@                                        ",
"                                                %%%%%%%%%%%%                                        ",
"                                                %%%%%%%%%%%%                                        ",
"                                                OOOOOO........                                      ",
"                                                OOOOOO........                                      ",
"                                                OOOOOO........OO                                    ",
"                                                OOOOOO........OO                                    ",
"                                                OOOO............                                    ",
"                                                OOOO............                                    ",
"                                                OOOO..    ........                                  ",
"                                                OOOO..    ........                                  ",
"                                                ****XX      ....%%                                  ",
"                                                ****XX      ....%%                                  ",
"                                                %%XX          XX%%                                  ",
"                                                %%XX          XX%%                                  ",
"                                                XX              XX%%                                ",
"                                                XX              XX%%                                ",
"                                                                XX%%                                ",
"                                                                XX%%                                ",
"                                                                  XXXX                              ",
"                                                                  XXXX                              ",
"                                                                                                    ",
"                                                                                                    ",
"                                                                                                    ",
"                                                                                                    ",
"                                                                                                    ",
"                                                                                                    ",
"                                                                                                    ",
"                                                                                                    ",
"                                                                                                    ",
"                                                                                                    "
};
